<svg width="40" height="40" viewBox="0 0 40 40" xmlns="http://www.w3.org/2000/svg"><g fill="none"><circle fill="#4CAF50" cx="20" cy="20" r="20"/><path d="M28.572 20.352h-.302c-.315 0-.572-.266-.572-.591v-1.109h-1.094l-1.502-4.27-.008-.015h2.76l-.813-2.359h-5.583l-.484 1.493h-1.403l.6-1.973c.12-.348.434-.597.811-.597h6.45c.377 0 .697.249.811.597l1.188 3.377v4.855c0 .325-.257.591-.571.591h-.29l.002.001z" id="Shape" fill="#fff"/><path d="M27.725 15.594c-.489 0-.882.385-.882.861 0 .477.394.862.882.862s.881-.385.881-.862c0-.476-.394-.861-.881-.861z" id="Shape" fill="#4CAF50"/><path d="M26.001 21.087v6.974c0 .479-.38.872-.844.872h-.874c-.464 0-.844-.393-.844-.872v-.848h-10.324v.848c0 .479-.38.872-.844.872h-.861c-.464 0-.844-.393-.844-.872v-6.974l1.755-4.99c.177-.514.641-.88 1.199-.88h9.528c.556 0 1.029.366 1.198.88l1.755 4.99z" id="Shape" fill="#fff"/><path d="M22.091 24.606c.721 0 1.302-.568 1.302-1.272 0-.703-.581-1.271-1.302-1.271-.721 0-1.302.568-1.302 1.271 0 .705.581 1.272 1.302 1.272zm-7.635.017c.72 0 1.302-.568 1.302-1.271 0-.705-.582-1.272-1.302-1.272-.721 0-1.303.568-1.303 1.272 0 .703.582 1.271 1.303 1.271zm-1.681-4.253h11.092l-1.2-3.484h-8.763l-1.129 3.484z" fill="#4CAF50"/></g></svg>
