<?xml version="1.0" encoding="us-ascii" standalone="no"?><svg xmlns="http://www.w3.org/2000/svg" xmlns:xlink="http://www.w3.org/1999/xlink" contentStyleType="text/css" height="342px" preserveAspectRatio="none" style="width:396px;height:342px;background:#FFFFFF;" version="1.1" viewBox="0 0 396 342" width="396px" zoomAndPan="magnify"><defs/><g><line style="stroke:#181818;stroke-width:0.5;stroke-dasharray:5.0,5.0;" x1="28" x2="28" y1="81.4883" y2="261.041"/><line style="stroke:#181818;stroke-width:0.5;stroke-dasharray:5.0,5.0;" x1="168" x2="168" y1="81.4883" y2="261.041"/><line style="stroke:#181818;stroke-width:0.5;stroke-dasharray:5.0,5.0;" x1="339.5" x2="339.5" y1="81.4883" y2="261.041"/><text fill="#000000" font-family="sans-serif" font-size="14" lengthAdjust="spacing" textLength="41" x="5" y="78.5352">Player</text><ellipse cx="28.5" cy="13.5" fill="#E2E2F0" rx="8" ry="8" style="stroke:#181818;stroke-width:0.5;"/><path d="M28.5,21.5 L28.5,48.5 M15.5,29.5 L41.5,29.5 M28.5,48.5 L15.5,63.5 M28.5,48.5 L41.5,63.5 " fill="none" style="stroke:#181818;stroke-width:0.5;"/><text fill="#000000" font-family="sans-serif" font-size="14" lengthAdjust="spacing" textLength="41" x="5" y="273.5762">Player</text><ellipse cx="28.5" cy="285.0293" fill="#E2E2F0" rx="8" ry="8" style="stroke:#181818;stroke-width:0.5;"/><path d="M28.5,293.0293 L28.5,320.0293 M15.5,301.0293 L41.5,301.0293 M28.5,320.0293 L15.5,335.0293 M28.5,320.0293 L41.5,335.0293 " fill="none" style="stroke:#181818;stroke-width:0.5;"/><rect fill="#E2E2F0" height="30.4883" rx="2.5" ry="2.5" style="stroke:#181818;stroke-width:0.5;" width="53" x="142" y="50"/><text fill="#000000" font-family="sans-serif" font-size="14" lengthAdjust="spacing" textLength="39" x="149" y="70.5352">Game</text><rect fill="#E2E2F0" height="30.4883" rx="2.5" ry="2.5" style="stroke:#181818;stroke-width:0.5;" width="53" x="142" y="260.041"/><text fill="#000000" font-family="sans-serif" font-size="14" lengthAdjust="spacing" textLength="39" x="149" y="280.5762">Game</text><text fill="#000000" font-family="sans-serif" font-size="14" lengthAdjust="spacing" textLength="106" x="283.5" y="78.5352">ServerDatabase</text><path d="M321.5,29 C321.5,19 339.5,19 339.5,19 C339.5,19 357.5,19 357.5,29 L357.5,55 C357.5,65 339.5,65 339.5,65 C339.5,65 321.5,65 321.5,55 L321.5,29 " fill="#E2E2F0" style="stroke:#181818;stroke-width:1.5;"/><path d="M321.5,29 C321.5,39 339.5,39 339.5,39 C339.5,39 357.5,39 357.5,29 " fill="none" style="stroke:#181818;stroke-width:1.5;"/><text fill="#000000" font-family="sans-serif" font-size="14" lengthAdjust="spacing" textLength="106" x="283.5" y="273.5762">ServerDatabase</text><path d="M321.5,286.5293 C321.5,276.5293 339.5,276.5293 339.5,276.5293 C339.5,276.5293 357.5,276.5293 357.5,286.5293 L357.5,312.5293 C357.5,322.5293 339.5,322.5293 339.5,322.5293 C339.5,322.5293 321.5,322.5293 321.5,312.5293 L321.5,286.5293 " fill="#E2E2F0" style="stroke:#181818;stroke-width:1.5;"/><path d="M321.5,286.5293 C321.5,296.5293 339.5,296.5293 339.5,296.5293 C339.5,296.5293 357.5,296.5293 357.5,286.5293 " fill="none" style="stroke:#181818;stroke-width:1.5;"/><polygon fill="#181818" points="156.5,108.7988,166.5,112.7988,156.5,116.7988,160.5,112.7988" style="stroke:#181818;stroke-width:1.0;"/><line style="stroke:#181818;stroke-width:1.0;" x1="28.5" x2="162.5" y1="112.7988" y2="112.7988"/><text fill="#000000" font-family="sans-serif" font-size="13" lengthAdjust="spacing" textLength="64" x="35.5" y="108.0566">Play Game</text><line style="stroke:#181818;stroke-width:1.0;" x1="168.5" x2="210.5" y1="142.1094" y2="142.1094"/><line style="stroke:#181818;stroke-width:1.0;" x1="210.5" x2="210.5" y1="142.1094" y2="155.1094"/><line style="stroke:#181818;stroke-width:1.0;" x1="169.5" x2="210.5" y1="155.1094" y2="155.1094"/><polygon fill="#181818" points="179.5,151.1094,169.5,155.1094,179.5,159.1094,175.5,155.1094" style="stroke:#181818;stroke-width:1.0;"/><text fill="#000000" font-family="sans-serif" font-size="13" lengthAdjust="spacing" textLength="116" x="175.5" y="137.3672">Finish Level or Die</text><polygon fill="#181818" points="39.5,180.4199,29.5,184.4199,39.5,188.4199,35.5,184.4199" style="stroke:#181818;stroke-width:1.0;"/><line style="stroke:#181818;stroke-width:1.0;" x1="33.5" x2="167.5" y1="184.4199" y2="184.4199"/><text fill="#000000" font-family="sans-serif" font-size="13" lengthAdjust="spacing" textLength="116" x="45.5" y="179.6777">Request Username</text><polygon fill="#181818" points="156.5,209.7305,166.5,213.7305,156.5,217.7305,160.5,213.7305" style="stroke:#181818;stroke-width:1.0;"/><line style="stroke:#181818;stroke-width:1.0;" x1="28.5" x2="162.5" y1="213.7305" y2="213.7305"/><text fill="#000000" font-family="sans-serif" font-size="13" lengthAdjust="spacing" textLength="98" x="35.5" y="208.9883">Enter Username</text><polygon fill="#181818" points="327.5,239.041,337.5,243.041,327.5,247.041,331.5,243.041" style="stroke:#181818;stroke-width:1.0;"/><line style="stroke:#181818;stroke-width:1.0;" x1="168.5" x2="333.5" y1="243.041" y2="243.041"/><text fill="#000000" font-family="sans-serif" font-size="13" lengthAdjust="spacing" textLength="147" x="175.5" y="238.2988">Save Highscore Globaly</text><!--SRC=[NOv13i8m30JlVOK_m0Tou5Ge1mw8YWUuOKKZXQGu9b9_Jzi05LmihRspQxOQXKwUHqWriAYpRk2WrF0TrPMLEqwW5f8XzLjMnK-RxM8p2r-8UQpxlGikzNH4XgUfftQhesGOEkFnH5Aw94YO8_x3Tq4d-Jr_-D-N3BMSGGTtwvED0cfyxDYFBm00]--></g></svg>