<?xml version="1.0" encoding="us-ascii" standalone="no"?><svg xmlns="http://www.w3.org/2000/svg" xmlns:xlink="http://www.w3.org/1999/xlink" contentStyleType="text/css" height="734px" preserveAspectRatio="none" style="width:1409px;height:734px;background:#FFFFFF;" version="1.1" viewBox="0 0 1409 734" width="1409px" zoomAndPan="magnify"><defs/><g><!--class AbstractGameScreen--><g id="elem_AbstractGameScreen"><rect codeLine="4" fill="#F1F1F1" height="48" id="AbstractGameScreen" rx="2.5" ry="2.5" style="stroke:#181818;stroke-width:0.5;" width="187" x="7" y="455"/><ellipse cx="22" cy="471" fill="#ADD1B2" rx="11" ry="11" style="stroke:#181818;stroke-width:1.0;"/><path d="M24.3438,466.6719 C23.4063,466.2344 22.8125,466.0938 21.9375,466.0938 C19.3125,466.0938 17.3125,468.1719 17.3125,470.8906 L17.3125,472.0156 C17.3125,474.5938 19.4219,476.4844 22.3125,476.4844 C23.5313,476.4844 24.6875,476.1875 25.4375,475.6406 C26.0156,475.2344 26.3438,474.7813 26.3438,474.3906 C26.3438,473.9375 25.9531,473.5469 25.4844,473.5469 C25.2656,473.5469 25.0625,473.625 24.875,473.8125 C24.4219,474.2969 24.4219,474.2969 24.2344,474.3906 C23.8125,474.6563 23.125,474.7813 22.3594,474.7813 C20.3125,474.7813 19.0156,473.6875 19.0156,471.9844 L19.0156,470.8906 C19.0156,469.1094 20.2656,467.7969 22,467.7969 C22.5781,467.7969 23.1875,467.9531 23.6563,468.2031 C24.1406,468.4844 24.3125,468.7031 24.4063,469.1094 C24.4688,469.5156 24.5,469.6406 24.6406,469.7656 C24.7813,469.9063 25.0156,470.0156 25.2344,470.0156 C25.5,470.0156 25.7656,469.875 25.9375,469.6563 C26.0469,469.5 26.0781,469.3125 26.0781,468.8906 L26.0781,467.4688 C26.0781,467.0313 26.0625,466.9063 25.9688,466.75 C25.8125,466.4844 25.5313,466.3438 25.2344,466.3438 C24.9375,466.3438 24.7344,466.4375 24.5156,466.75 L24.3438,466.6719 Z " fill="#000000"/><text fill="#000000" font-family="sans-serif" font-size="14" lengthAdjust="spacing" textLength="155" x="36" y="475.8467">AbstractGameScreen</text><line style="stroke:#181818;stroke-width:0.5;" x1="8" x2="193" y1="487" y2="487"/><line style="stroke:#181818;stroke-width:0.5;" x1="8" x2="193" y1="495" y2="495"/></g><!--class AnimatedCollisionObject--><g id="elem_AnimatedCollisionObject"><rect codeLine="5" fill="#F1F1F1" height="48" id="AnimatedCollisionObject" rx="2.5" ry="2.5" style="stroke:#181818;stroke-width:0.5;" width="211" x="265" y="563"/><ellipse cx="280" cy="579" fill="#ADD1B2" rx="11" ry="11" style="stroke:#181818;stroke-width:1.0;"/><path d="M282.3438,574.6719 C281.4063,574.2344 280.8125,574.0938 279.9375,574.0938 C277.3125,574.0938 275.3125,576.1719 275.3125,578.8906 L275.3125,580.0156 C275.3125,582.5938 277.4219,584.4844 280.3125,584.4844 C281.5313,584.4844 282.6875,584.1875 283.4375,583.6406 C284.0156,583.2344 284.3438,582.7813 284.3438,582.3906 C284.3438,581.9375 283.9531,581.5469 283.4844,581.5469 C283.2656,581.5469 283.0625,581.625 282.875,581.8125 C282.4219,582.2969 282.4219,582.2969 282.2344,582.3906 C281.8125,582.6563 281.125,582.7813 280.3594,582.7813 C278.3125,582.7813 277.0156,581.6875 277.0156,579.9844 L277.0156,578.8906 C277.0156,577.1094 278.2656,575.7969 280,575.7969 C280.5781,575.7969 281.1875,575.9531 281.6563,576.2031 C282.1406,576.4844 282.3125,576.7031 282.4063,577.1094 C282.4688,577.5156 282.5,577.6406 282.6406,577.7656 C282.7813,577.9063 283.0156,578.0156 283.2344,578.0156 C283.5,578.0156 283.7656,577.875 283.9375,577.6563 C284.0469,577.5 284.0781,577.3125 284.0781,576.8906 L284.0781,575.4688 C284.0781,575.0313 284.0625,574.9063 283.9688,574.75 C283.8125,574.4844 283.5313,574.3438 283.2344,574.3438 C282.9375,574.3438 282.7344,574.4375 282.5156,574.75 L282.3438,574.6719 Z " fill="#000000"/><text fill="#000000" font-family="sans-serif" font-size="14" lengthAdjust="spacing" textLength="179" x="294" y="583.8467">AnimatedCollisionObject</text><line style="stroke:#181818;stroke-width:0.5;" x1="266" x2="475" y1="595" y2="595"/><line style="stroke:#181818;stroke-width:0.5;" x1="266" x2="475" y1="603" y2="603"/></g><!--class AnimatedGameObject--><g id="elem_AnimatedGameObject"><rect codeLine="6" fill="#F1F1F1" height="48" id="AnimatedGameObject" rx="2.5" ry="2.5" style="stroke:#181818;stroke-width:0.5;" width="193" x="455" y="675"/><ellipse cx="470" cy="691" fill="#ADD1B2" rx="11" ry="11" style="stroke:#181818;stroke-width:1.0;"/><path d="M472.3438,686.6719 C471.4063,686.2344 470.8125,686.0938 469.9375,686.0938 C467.3125,686.0938 465.3125,688.1719 465.3125,690.8906 L465.3125,692.0156 C465.3125,694.5938 467.4219,696.4844 470.3125,696.4844 C471.5313,696.4844 472.6875,696.1875 473.4375,695.6406 C474.0156,695.2344 474.3438,694.7813 474.3438,694.3906 C474.3438,693.9375 473.9531,693.5469 473.4844,693.5469 C473.2656,693.5469 473.0625,693.625 472.875,693.8125 C472.4219,694.2969 472.4219,694.2969 472.2344,694.3906 C471.8125,694.6563 471.125,694.7813 470.3594,694.7813 C468.3125,694.7813 467.0156,693.6875 467.0156,691.9844 L467.0156,690.8906 C467.0156,689.1094 468.2656,687.7969 470,687.7969 C470.5781,687.7969 471.1875,687.9531 471.6563,688.2031 C472.1406,688.4844 472.3125,688.7031 472.4063,689.1094 C472.4688,689.5156 472.5,689.6406 472.6406,689.7656 C472.7813,689.9063 473.0156,690.0156 473.2344,690.0156 C473.5,690.0156 473.7656,689.875 473.9375,689.6563 C474.0469,689.5 474.0781,689.3125 474.0781,688.8906 L474.0781,687.4688 C474.0781,687.0313 474.0625,686.9063 473.9688,686.75 C473.8125,686.4844 473.5313,686.3438 473.2344,686.3438 C472.9375,686.3438 472.7344,686.4375 472.5156,686.75 L472.3438,686.6719 Z " fill="#000000"/><text fill="#000000" font-family="sans-serif" font-size="14" lengthAdjust="spacing" textLength="161" x="484" y="695.8467">AnimatedGameObject</text><line style="stroke:#181818;stroke-width:0.5;" x1="456" x2="647" y1="707" y2="707"/><line style="stroke:#181818;stroke-width:0.5;" x1="456" x2="647" y1="715" y2="715"/></g><!--class Bow--><g id="elem_Bow"><rect codeLine="7" fill="#F1F1F1" height="48" id="Bow" rx="2.5" ry="2.5" style="stroke:#181818;stroke-width:0.5;" width="62" x="721.5" y="563"/><ellipse cx="736.5" cy="579" fill="#ADD1B2" rx="11" ry="11" style="stroke:#181818;stroke-width:1.0;"/><path d="M738.8438,574.6719 C737.9063,574.2344 737.3125,574.0938 736.4375,574.0938 C733.8125,574.0938 731.8125,576.1719 731.8125,578.8906 L731.8125,580.0156 C731.8125,582.5938 733.9219,584.4844 736.8125,584.4844 C738.0313,584.4844 739.1875,584.1875 739.9375,583.6406 C740.5156,583.2344 740.8438,582.7813 740.8438,582.3906 C740.8438,581.9375 740.4531,581.5469 739.9844,581.5469 C739.7656,581.5469 739.5625,581.625 739.375,581.8125 C738.9219,582.2969 738.9219,582.2969 738.7344,582.3906 C738.3125,582.6563 737.625,582.7813 736.8594,582.7813 C734.8125,582.7813 733.5156,581.6875 733.5156,579.9844 L733.5156,578.8906 C733.5156,577.1094 734.7656,575.7969 736.5,575.7969 C737.0781,575.7969 737.6875,575.9531 738.1563,576.2031 C738.6406,576.4844 738.8125,576.7031 738.9063,577.1094 C738.9688,577.5156 739,577.6406 739.1406,577.7656 C739.2813,577.9063 739.5156,578.0156 739.7344,578.0156 C740,578.0156 740.2656,577.875 740.4375,577.6563 C740.5469,577.5 740.5781,577.3125 740.5781,576.8906 L740.5781,575.4688 C740.5781,575.0313 740.5625,574.9063 740.4688,574.75 C740.3125,574.4844 740.0313,574.3438 739.7344,574.3438 C739.4375,574.3438 739.2344,574.4375 739.0156,574.75 L738.8438,574.6719 Z " fill="#000000"/><text fill="#000000" font-family="sans-serif" font-size="14" lengthAdjust="spacing" textLength="30" x="750.5" y="583.8467">Bow</text><line style="stroke:#181818;stroke-width:0.5;" x1="722.5" x2="782.5" y1="595" y2="595"/><line style="stroke:#181818;stroke-width:0.5;" x1="722.5" x2="782.5" y1="603" y2="603"/></g><!--class CameraHelper--><g id="elem_CameraHelper"><rect codeLine="8" fill="#F1F1F1" height="48" id="CameraHelper" rx="2.5" ry="2.5" style="stroke:#181818;stroke-width:0.5;" width="135" x="767" y="347"/><ellipse cx="782" cy="363" fill="#ADD1B2" rx="11" ry="11" style="stroke:#181818;stroke-width:1.0;"/><path d="M784.3438,358.6719 C783.4063,358.2344 782.8125,358.0938 781.9375,358.0938 C779.3125,358.0938 777.3125,360.1719 777.3125,362.8906 L777.3125,364.0156 C777.3125,366.5938 779.4219,368.4844 782.3125,368.4844 C783.5313,368.4844 784.6875,368.1875 785.4375,367.6406 C786.0156,367.2344 786.3438,366.7813 786.3438,366.3906 C786.3438,365.9375 785.9531,365.5469 785.4844,365.5469 C785.2656,365.5469 785.0625,365.625 784.875,365.8125 C784.4219,366.2969 784.4219,366.2969 784.2344,366.3906 C783.8125,366.6563 783.125,366.7813 782.3594,366.7813 C780.3125,366.7813 779.0156,365.6875 779.0156,363.9844 L779.0156,362.8906 C779.0156,361.1094 780.2656,359.7969 782,359.7969 C782.5781,359.7969 783.1875,359.9531 783.6563,360.2031 C784.1406,360.4844 784.3125,360.7031 784.4063,361.1094 C784.4688,361.5156 784.5,361.6406 784.6406,361.7656 C784.7813,361.9063 785.0156,362.0156 785.2344,362.0156 C785.5,362.0156 785.7656,361.875 785.9375,361.6563 C786.0469,361.5 786.0781,361.3125 786.0781,360.8906 L786.0781,359.4688 C786.0781,359.0313 786.0625,358.9063 785.9688,358.75 C785.8125,358.4844 785.5313,358.3438 785.2344,358.3438 C784.9375,358.3438 784.7344,358.4375 784.5156,358.75 L784.3438,358.6719 Z " fill="#000000"/><text fill="#000000" font-family="sans-serif" font-size="14" lengthAdjust="spacing" textLength="103" x="796" y="367.8467">CameraHelper</text><line style="stroke:#181818;stroke-width:0.5;" x1="768" x2="901" y1="379" y2="379"/><line style="stroke:#181818;stroke-width:0.5;" x1="768" x2="901" y1="387" y2="387"/></g><!--class CandleStick--><g id="elem_CandleStick"><rect codeLine="9" fill="#F1F1F1" height="48" id="CandleStick" rx="2.5" ry="2.5" style="stroke:#181818;stroke-width:0.5;" width="118" x="437.5" y="455"/><ellipse cx="452.5" cy="471" fill="#ADD1B2" rx="11" ry="11" style="stroke:#181818;stroke-width:1.0;"/><path d="M454.8438,466.6719 C453.9063,466.2344 453.3125,466.0938 452.4375,466.0938 C449.8125,466.0938 447.8125,468.1719 447.8125,470.8906 L447.8125,472.0156 C447.8125,474.5938 449.9219,476.4844 452.8125,476.4844 C454.0313,476.4844 455.1875,476.1875 455.9375,475.6406 C456.5156,475.2344 456.8438,474.7813 456.8438,474.3906 C456.8438,473.9375 456.4531,473.5469 455.9844,473.5469 C455.7656,473.5469 455.5625,473.625 455.375,473.8125 C454.9219,474.2969 454.9219,474.2969 454.7344,474.3906 C454.3125,474.6563 453.625,474.7813 452.8594,474.7813 C450.8125,474.7813 449.5156,473.6875 449.5156,471.9844 L449.5156,470.8906 C449.5156,469.1094 450.7656,467.7969 452.5,467.7969 C453.0781,467.7969 453.6875,467.9531 454.1563,468.2031 C454.6406,468.4844 454.8125,468.7031 454.9063,469.1094 C454.9688,469.5156 455,469.6406 455.1406,469.7656 C455.2813,469.9063 455.5156,470.0156 455.7344,470.0156 C456,470.0156 456.2656,469.875 456.4375,469.6563 C456.5469,469.5 456.5781,469.3125 456.5781,468.8906 L456.5781,467.4688 C456.5781,467.0313 456.5625,466.9063 456.4688,466.75 C456.3125,466.4844 456.0313,466.3438 455.7344,466.3438 C455.4375,466.3438 455.2344,466.4375 455.0156,466.75 L454.8438,466.6719 Z " fill="#000000"/><text fill="#000000" font-family="sans-serif" font-size="14" lengthAdjust="spacing" textLength="86" x="466.5" y="475.8467">CandleStick</text><line style="stroke:#181818;stroke-width:0.5;" x1="438.5" x2="554.5" y1="487" y2="487"/><line style="stroke:#181818;stroke-width:0.5;" x1="438.5" x2="554.5" y1="495" y2="495"/></g><!--class Chest--><g id="elem_Chest"><rect codeLine="10" fill="#F1F1F1" height="48" id="Chest" rx="2.5" ry="2.5" style="stroke:#181818;stroke-width:0.5;" width="74" x="229.5" y="455"/><ellipse cx="244.5" cy="471" fill="#ADD1B2" rx="11" ry="11" style="stroke:#181818;stroke-width:1.0;"/><path d="M246.8438,466.6719 C245.9063,466.2344 245.3125,466.0938 244.4375,466.0938 C241.8125,466.0938 239.8125,468.1719 239.8125,470.8906 L239.8125,472.0156 C239.8125,474.5938 241.9219,476.4844 244.8125,476.4844 C246.0313,476.4844 247.1875,476.1875 247.9375,475.6406 C248.5156,475.2344 248.8438,474.7813 248.8438,474.3906 C248.8438,473.9375 248.4531,473.5469 247.9844,473.5469 C247.7656,473.5469 247.5625,473.625 247.375,473.8125 C246.9219,474.2969 246.9219,474.2969 246.7344,474.3906 C246.3125,474.6563 245.625,474.7813 244.8594,474.7813 C242.8125,474.7813 241.5156,473.6875 241.5156,471.9844 L241.5156,470.8906 C241.5156,469.1094 242.7656,467.7969 244.5,467.7969 C245.0781,467.7969 245.6875,467.9531 246.1563,468.2031 C246.6406,468.4844 246.8125,468.7031 246.9063,469.1094 C246.9688,469.5156 247,469.6406 247.1406,469.7656 C247.2813,469.9063 247.5156,470.0156 247.7344,470.0156 C248,470.0156 248.2656,469.875 248.4375,469.6563 C248.5469,469.5 248.5781,469.3125 248.5781,468.8906 L248.5781,467.4688 C248.5781,467.0313 248.5625,466.9063 248.4688,466.75 C248.3125,466.4844 248.0313,466.3438 247.7344,466.3438 C247.4375,466.3438 247.2344,466.4375 247.0156,466.75 L246.8438,466.6719 Z " fill="#000000"/><text fill="#000000" font-family="sans-serif" font-size="14" lengthAdjust="spacing" textLength="42" x="258.5" y="475.8467">Chest</text><line style="stroke:#181818;stroke-width:0.5;" x1="230.5" x2="302.5" y1="487" y2="487"/><line style="stroke:#181818;stroke-width:0.5;" x1="230.5" x2="302.5" y1="495" y2="495"/></g><!--class Coin--><g id="elem_Coin"><rect codeLine="11" fill="#F1F1F1" height="48" id="Coin" rx="2.5" ry="2.5" style="stroke:#181818;stroke-width:0.5;" width="64" x="338.5" y="455"/><ellipse cx="353.5" cy="471" fill="#ADD1B2" rx="11" ry="11" style="stroke:#181818;stroke-width:1.0;"/><path d="M355.8438,466.6719 C354.9063,466.2344 354.3125,466.0938 353.4375,466.0938 C350.8125,466.0938 348.8125,468.1719 348.8125,470.8906 L348.8125,472.0156 C348.8125,474.5938 350.9219,476.4844 353.8125,476.4844 C355.0313,476.4844 356.1875,476.1875 356.9375,475.6406 C357.5156,475.2344 357.8438,474.7813 357.8438,474.3906 C357.8438,473.9375 357.4531,473.5469 356.9844,473.5469 C356.7656,473.5469 356.5625,473.625 356.375,473.8125 C355.9219,474.2969 355.9219,474.2969 355.7344,474.3906 C355.3125,474.6563 354.625,474.7813 353.8594,474.7813 C351.8125,474.7813 350.5156,473.6875 350.5156,471.9844 L350.5156,470.8906 C350.5156,469.1094 351.7656,467.7969 353.5,467.7969 C354.0781,467.7969 354.6875,467.9531 355.1563,468.2031 C355.6406,468.4844 355.8125,468.7031 355.9063,469.1094 C355.9688,469.5156 356,469.6406 356.1406,469.7656 C356.2813,469.9063 356.5156,470.0156 356.7344,470.0156 C357,470.0156 357.2656,469.875 357.4375,469.6563 C357.5469,469.5 357.5781,469.3125 357.5781,468.8906 L357.5781,467.4688 C357.5781,467.0313 357.5625,466.9063 357.4688,466.75 C357.3125,466.4844 357.0313,466.3438 356.7344,466.3438 C356.4375,466.3438 356.2344,466.4375 356.0156,466.75 L355.8438,466.6719 Z " fill="#000000"/><text fill="#000000" font-family="sans-serif" font-size="14" lengthAdjust="spacing" textLength="32" x="367.5" y="475.8467">Coin</text><line style="stroke:#181818;stroke-width:0.5;" x1="339.5" x2="401.5" y1="487" y2="487"/><line style="stroke:#181818;stroke-width:0.5;" x1="339.5" x2="401.5" y1="495" y2="495"/></g><!--class Enemy--><g id="elem_Enemy"><rect codeLine="12" fill="#F1F1F1" height="48" id="Enemy" rx="2.5" ry="2.5" style="stroke:#181818;stroke-width:0.5;" width="81" x="511" y="563"/><ellipse cx="526" cy="579" fill="#ADD1B2" rx="11" ry="11" style="stroke:#181818;stroke-width:1.0;"/><path d="M528.3438,574.6719 C527.4063,574.2344 526.8125,574.0938 525.9375,574.0938 C523.3125,574.0938 521.3125,576.1719 521.3125,578.8906 L521.3125,580.0156 C521.3125,582.5938 523.4219,584.4844 526.3125,584.4844 C527.5313,584.4844 528.6875,584.1875 529.4375,583.6406 C530.0156,583.2344 530.3438,582.7813 530.3438,582.3906 C530.3438,581.9375 529.9531,581.5469 529.4844,581.5469 C529.2656,581.5469 529.0625,581.625 528.875,581.8125 C528.4219,582.2969 528.4219,582.2969 528.2344,582.3906 C527.8125,582.6563 527.125,582.7813 526.3594,582.7813 C524.3125,582.7813 523.0156,581.6875 523.0156,579.9844 L523.0156,578.8906 C523.0156,577.1094 524.2656,575.7969 526,575.7969 C526.5781,575.7969 527.1875,575.9531 527.6563,576.2031 C528.1406,576.4844 528.3125,576.7031 528.4063,577.1094 C528.4688,577.5156 528.5,577.6406 528.6406,577.7656 C528.7813,577.9063 529.0156,578.0156 529.2344,578.0156 C529.5,578.0156 529.7656,577.875 529.9375,577.6563 C530.0469,577.5 530.0781,577.3125 530.0781,576.8906 L530.0781,575.4688 C530.0781,575.0313 530.0625,574.9063 529.9688,574.75 C529.8125,574.4844 529.5313,574.3438 529.2344,574.3438 C528.9375,574.3438 528.7344,574.4375 528.5156,574.75 L528.3438,574.6719 Z " fill="#000000"/><text fill="#000000" font-family="sans-serif" font-size="14" lengthAdjust="spacing" textLength="49" x="540" y="583.8467">Enemy</text><line style="stroke:#181818;stroke-width:0.5;" x1="512" x2="591" y1="595" y2="595"/><line style="stroke:#181818;stroke-width:0.5;" x1="512" x2="591" y1="603" y2="603"/></g><!--class GameScreen--><g id="elem_GameScreen"><rect codeLine="13" fill="#F1F1F1" height="48" id="GameScreen" rx="2.5" ry="2.5" style="stroke:#181818;stroke-width:0.5;" width="124" x="585.5" y="11"/><ellipse cx="600.5" cy="27" fill="#ADD1B2" rx="11" ry="11" style="stroke:#181818;stroke-width:1.0;"/><path d="M602.8438,22.6719 C601.9063,22.2344 601.3125,22.0938 600.4375,22.0938 C597.8125,22.0938 595.8125,24.1719 595.8125,26.8906 L595.8125,28.0156 C595.8125,30.5938 597.9219,32.4844 600.8125,32.4844 C602.0313,32.4844 603.1875,32.1875 603.9375,31.6406 C604.5156,31.2344 604.8438,30.7813 604.8438,30.3906 C604.8438,29.9375 604.4531,29.5469 603.9844,29.5469 C603.7656,29.5469 603.5625,29.625 603.375,29.8125 C602.9219,30.2969 602.9219,30.2969 602.7344,30.3906 C602.3125,30.6563 601.625,30.7813 600.8594,30.7813 C598.8125,30.7813 597.5156,29.6875 597.5156,27.9844 L597.5156,26.8906 C597.5156,25.1094 598.7656,23.7969 600.5,23.7969 C601.0781,23.7969 601.6875,23.9531 602.1563,24.2031 C602.6406,24.4844 602.8125,24.7031 602.9063,25.1094 C602.9688,25.5156 603,25.6406 603.1406,25.7656 C603.2813,25.9063 603.5156,26.0156 603.7344,26.0156 C604,26.0156 604.2656,25.875 604.4375,25.6563 C604.5469,25.5 604.5781,25.3125 604.5781,24.8906 L604.5781,23.4688 C604.5781,23.0313 604.5625,22.9063 604.4688,22.75 C604.3125,22.4844 604.0313,22.3438 603.7344,22.3438 C603.4375,22.3438 603.2344,22.4375 603.0156,22.75 L602.8438,22.6719 Z " fill="#000000"/><text fill="#000000" font-family="sans-serif" font-size="14" lengthAdjust="spacing" textLength="92" x="614.5" y="31.8467">GameScreen</text><line style="stroke:#181818;stroke-width:0.5;" x1="586.5" x2="708.5" y1="43" y2="43"/><line style="stroke:#181818;stroke-width:0.5;" x1="586.5" x2="708.5" y1="51" y2="51"/></g><!--class HandGun--><g id="elem_HandGun"><rect codeLine="14" fill="#F1F1F1" height="48" id="HandGun" rx="2.5" ry="2.5" style="stroke:#181818;stroke-width:0.5;" width="96" x="818.5" y="563"/><ellipse cx="833.5" cy="579" fill="#ADD1B2" rx="11" ry="11" style="stroke:#181818;stroke-width:1.0;"/><path d="M835.8438,574.6719 C834.9063,574.2344 834.3125,574.0938 833.4375,574.0938 C830.8125,574.0938 828.8125,576.1719 828.8125,578.8906 L828.8125,580.0156 C828.8125,582.5938 830.9219,584.4844 833.8125,584.4844 C835.0313,584.4844 836.1875,584.1875 836.9375,583.6406 C837.5156,583.2344 837.8438,582.7813 837.8438,582.3906 C837.8438,581.9375 837.4531,581.5469 836.9844,581.5469 C836.7656,581.5469 836.5625,581.625 836.375,581.8125 C835.9219,582.2969 835.9219,582.2969 835.7344,582.3906 C835.3125,582.6563 834.625,582.7813 833.8594,582.7813 C831.8125,582.7813 830.5156,581.6875 830.5156,579.9844 L830.5156,578.8906 C830.5156,577.1094 831.7656,575.7969 833.5,575.7969 C834.0781,575.7969 834.6875,575.9531 835.1563,576.2031 C835.6406,576.4844 835.8125,576.7031 835.9063,577.1094 C835.9688,577.5156 836,577.6406 836.1406,577.7656 C836.2813,577.9063 836.5156,578.0156 836.7344,578.0156 C837,578.0156 837.2656,577.875 837.4375,577.6563 C837.5469,577.5 837.5781,577.3125 837.5781,576.8906 L837.5781,575.4688 C837.5781,575.0313 837.5625,574.9063 837.4688,574.75 C837.3125,574.4844 837.0313,574.3438 836.7344,574.3438 C836.4375,574.3438 836.2344,574.4375 836.0156,574.75 L835.8438,574.6719 Z " fill="#000000"/><text fill="#000000" font-family="sans-serif" font-size="14" lengthAdjust="spacing" textLength="64" x="847.5" y="583.8467">HandGun</text><line style="stroke:#181818;stroke-width:0.5;" x1="819.5" x2="913.5" y1="595" y2="595"/><line style="stroke:#181818;stroke-width:0.5;" x1="819.5" x2="913.5" y1="603" y2="603"/></g><!--class Key--><g id="elem_Key"><rect codeLine="15" fill="#F1F1F1" height="48" id="Key" rx="2.5" ry="2.5" style="stroke:#181818;stroke-width:0.5;" width="59" x="627" y="563"/><ellipse cx="642" cy="579" fill="#ADD1B2" rx="11" ry="11" style="stroke:#181818;stroke-width:1.0;"/><path d="M644.3438,574.6719 C643.4063,574.2344 642.8125,574.0938 641.9375,574.0938 C639.3125,574.0938 637.3125,576.1719 637.3125,578.8906 L637.3125,580.0156 C637.3125,582.5938 639.4219,584.4844 642.3125,584.4844 C643.5313,584.4844 644.6875,584.1875 645.4375,583.6406 C646.0156,583.2344 646.3438,582.7813 646.3438,582.3906 C646.3438,581.9375 645.9531,581.5469 645.4844,581.5469 C645.2656,581.5469 645.0625,581.625 644.875,581.8125 C644.4219,582.2969 644.4219,582.2969 644.2344,582.3906 C643.8125,582.6563 643.125,582.7813 642.3594,582.7813 C640.3125,582.7813 639.0156,581.6875 639.0156,579.9844 L639.0156,578.8906 C639.0156,577.1094 640.2656,575.7969 642,575.7969 C642.5781,575.7969 643.1875,575.9531 643.6563,576.2031 C644.1406,576.4844 644.3125,576.7031 644.4063,577.1094 C644.4688,577.5156 644.5,577.6406 644.6406,577.7656 C644.7813,577.9063 645.0156,578.0156 645.2344,578.0156 C645.5,578.0156 645.7656,577.875 645.9375,577.6563 C646.0469,577.5 646.0781,577.3125 646.0781,576.8906 L646.0781,575.4688 C646.0781,575.0313 646.0625,574.9063 645.9688,574.75 C645.8125,574.4844 645.5313,574.3438 645.2344,574.3438 C644.9375,574.3438 644.7344,574.4375 644.5156,574.75 L644.3438,574.6719 Z " fill="#000000"/><text fill="#000000" font-family="sans-serif" font-size="14" lengthAdjust="spacing" textLength="27" x="656" y="583.8467">Key</text><line style="stroke:#181818;stroke-width:0.5;" x1="628" x2="685" y1="595" y2="595"/><line style="stroke:#181818;stroke-width:0.5;" x1="628" x2="685" y1="603" y2="603"/></g><!--class LaserGun--><g id="elem_LaserGun"><rect codeLine="16" fill="#F1F1F1" height="48" id="LaserGun" rx="2.5" ry="2.5" style="stroke:#181818;stroke-width:0.5;" width="98" x="949.5" y="563"/><ellipse cx="964.5" cy="579" fill="#ADD1B2" rx="11" ry="11" style="stroke:#181818;stroke-width:1.0;"/><path d="M966.8438,574.6719 C965.9063,574.2344 965.3125,574.0938 964.4375,574.0938 C961.8125,574.0938 959.8125,576.1719 959.8125,578.8906 L959.8125,580.0156 C959.8125,582.5938 961.9219,584.4844 964.8125,584.4844 C966.0313,584.4844 967.1875,584.1875 967.9375,583.6406 C968.5156,583.2344 968.8438,582.7813 968.8438,582.3906 C968.8438,581.9375 968.4531,581.5469 967.9844,581.5469 C967.7656,581.5469 967.5625,581.625 967.375,581.8125 C966.9219,582.2969 966.9219,582.2969 966.7344,582.3906 C966.3125,582.6563 965.625,582.7813 964.8594,582.7813 C962.8125,582.7813 961.5156,581.6875 961.5156,579.9844 L961.5156,578.8906 C961.5156,577.1094 962.7656,575.7969 964.5,575.7969 C965.0781,575.7969 965.6875,575.9531 966.1563,576.2031 C966.6406,576.4844 966.8125,576.7031 966.9063,577.1094 C966.9688,577.5156 967,577.6406 967.1406,577.7656 C967.2813,577.9063 967.5156,578.0156 967.7344,578.0156 C968,578.0156 968.2656,577.875 968.4375,577.6563 C968.5469,577.5 968.5781,577.3125 968.5781,576.8906 L968.5781,575.4688 C968.5781,575.0313 968.5625,574.9063 968.4688,574.75 C968.3125,574.4844 968.0313,574.3438 967.7344,574.3438 C967.4375,574.3438 967.2344,574.4375 967.0156,574.75 L966.8438,574.6719 Z " fill="#000000"/><text fill="#000000" font-family="sans-serif" font-size="14" lengthAdjust="spacing" textLength="66" x="978.5" y="583.8467">LaserGun</text><line style="stroke:#181818;stroke-width:0.5;" x1="950.5" x2="1046.5" y1="595" y2="595"/><line style="stroke:#181818;stroke-width:0.5;" x1="950.5" x2="1046.5" y1="603" y2="603"/></g><!--class MachineGun--><g id="elem_MachineGun"><rect codeLine="17" fill="#F1F1F1" height="48" id="MachineGun" rx="2.5" ry="2.5" style="stroke:#181818;stroke-width:0.5;" width="119" x="1083" y="563"/><ellipse cx="1098" cy="579" fill="#ADD1B2" rx="11" ry="11" style="stroke:#181818;stroke-width:1.0;"/><path d="M1100.3438,574.6719 C1099.4063,574.2344 1098.8125,574.0938 1097.9375,574.0938 C1095.3125,574.0938 1093.3125,576.1719 1093.3125,578.8906 L1093.3125,580.0156 C1093.3125,582.5938 1095.4219,584.4844 1098.3125,584.4844 C1099.5313,584.4844 1100.6875,584.1875 1101.4375,583.6406 C1102.0156,583.2344 1102.3438,582.7813 1102.3438,582.3906 C1102.3438,581.9375 1101.9531,581.5469 1101.4844,581.5469 C1101.2656,581.5469 1101.0625,581.625 1100.875,581.8125 C1100.4219,582.2969 1100.4219,582.2969 1100.2344,582.3906 C1099.8125,582.6563 1099.125,582.7813 1098.3594,582.7813 C1096.3125,582.7813 1095.0156,581.6875 1095.0156,579.9844 L1095.0156,578.8906 C1095.0156,577.1094 1096.2656,575.7969 1098,575.7969 C1098.5781,575.7969 1099.1875,575.9531 1099.6563,576.2031 C1100.1406,576.4844 1100.3125,576.7031 1100.4063,577.1094 C1100.4688,577.5156 1100.5,577.6406 1100.6406,577.7656 C1100.7813,577.9063 1101.0156,578.0156 1101.2344,578.0156 C1101.5,578.0156 1101.7656,577.875 1101.9375,577.6563 C1102.0469,577.5 1102.0781,577.3125 1102.0781,576.8906 L1102.0781,575.4688 C1102.0781,575.0313 1102.0625,574.9063 1101.9688,574.75 C1101.8125,574.4844 1101.5313,574.3438 1101.2344,574.3438 C1100.9375,574.3438 1100.7344,574.4375 1100.5156,574.75 L1100.3438,574.6719 Z " fill="#000000"/><text fill="#000000" font-family="sans-serif" font-size="14" lengthAdjust="spacing" textLength="87" x="1112" y="583.8467">MachineGun</text><line style="stroke:#181818;stroke-width:0.5;" x1="1084" x2="1201" y1="595" y2="595"/><line style="stroke:#181818;stroke-width:0.5;" x1="1084" x2="1201" y1="603" y2="603"/></g><!--class MenuScreen--><g id="elem_MenuScreen"><rect codeLine="18" fill="#F1F1F1" height="48" id="MenuScreen" rx="2.5" ry="2.5" style="stroke:#181818;stroke-width:0.5;" width="120" x="280.5" y="347"/><ellipse cx="295.5" cy="363" fill="#ADD1B2" rx="11" ry="11" style="stroke:#181818;stroke-width:1.0;"/><path d="M297.8438,358.6719 C296.9063,358.2344 296.3125,358.0938 295.4375,358.0938 C292.8125,358.0938 290.8125,360.1719 290.8125,362.8906 L290.8125,364.0156 C290.8125,366.5938 292.9219,368.4844 295.8125,368.4844 C297.0313,368.4844 298.1875,368.1875 298.9375,367.6406 C299.5156,367.2344 299.8438,366.7813 299.8438,366.3906 C299.8438,365.9375 299.4531,365.5469 298.9844,365.5469 C298.7656,365.5469 298.5625,365.625 298.375,365.8125 C297.9219,366.2969 297.9219,366.2969 297.7344,366.3906 C297.3125,366.6563 296.625,366.7813 295.8594,366.7813 C293.8125,366.7813 292.5156,365.6875 292.5156,363.9844 L292.5156,362.8906 C292.5156,361.1094 293.7656,359.7969 295.5,359.7969 C296.0781,359.7969 296.6875,359.9531 297.1563,360.2031 C297.6406,360.4844 297.8125,360.7031 297.9063,361.1094 C297.9688,361.5156 298,361.6406 298.1406,361.7656 C298.2813,361.9063 298.5156,362.0156 298.7344,362.0156 C299,362.0156 299.2656,361.875 299.4375,361.6563 C299.5469,361.5 299.5781,361.3125 299.5781,360.8906 L299.5781,359.4688 C299.5781,359.0313 299.5625,358.9063 299.4688,358.75 C299.3125,358.4844 299.0313,358.3438 298.7344,358.3438 C298.4375,358.3438 298.2344,358.4375 298.0156,358.75 L297.8438,358.6719 Z " fill="#000000"/><text fill="#000000" font-family="sans-serif" font-size="14" lengthAdjust="spacing" textLength="88" x="309.5" y="367.8467">MenuScreen</text><line style="stroke:#181818;stroke-width:0.5;" x1="281.5" x2="399.5" y1="379" y2="379"/><line style="stroke:#181818;stroke-width:0.5;" x1="281.5" x2="399.5" y1="387" y2="387"/></g><!--class Player--><g id="elem_Player"><rect codeLine="19" fill="#F1F1F1" height="48" id="Player" rx="2.5" ry="2.5" style="stroke:#181818;stroke-width:0.5;" width="76" x="688.5" y="455"/><ellipse cx="703.5" cy="471" fill="#ADD1B2" rx="11" ry="11" style="stroke:#181818;stroke-width:1.0;"/><path d="M705.8438,466.6719 C704.9063,466.2344 704.3125,466.0938 703.4375,466.0938 C700.8125,466.0938 698.8125,468.1719 698.8125,470.8906 L698.8125,472.0156 C698.8125,474.5938 700.9219,476.4844 703.8125,476.4844 C705.0313,476.4844 706.1875,476.1875 706.9375,475.6406 C707.5156,475.2344 707.8438,474.7813 707.8438,474.3906 C707.8438,473.9375 707.4531,473.5469 706.9844,473.5469 C706.7656,473.5469 706.5625,473.625 706.375,473.8125 C705.9219,474.2969 705.9219,474.2969 705.7344,474.3906 C705.3125,474.6563 704.625,474.7813 703.8594,474.7813 C701.8125,474.7813 700.5156,473.6875 700.5156,471.9844 L700.5156,470.8906 C700.5156,469.1094 701.7656,467.7969 703.5,467.7969 C704.0781,467.7969 704.6875,467.9531 705.1563,468.2031 C705.6406,468.4844 705.8125,468.7031 705.9063,469.1094 C705.9688,469.5156 706,469.6406 706.1406,469.7656 C706.2813,469.9063 706.5156,470.0156 706.7344,470.0156 C707,470.0156 707.2656,469.875 707.4375,469.6563 C707.5469,469.5 707.5781,469.3125 707.5781,468.8906 L707.5781,467.4688 C707.5781,467.0313 707.5625,466.9063 707.4688,466.75 C707.3125,466.4844 707.0313,466.3438 706.7344,466.3438 C706.4375,466.3438 706.2344,466.4375 706.0156,466.75 L705.8438,466.6719 Z " fill="#000000"/><text fill="#000000" font-family="sans-serif" font-size="14" lengthAdjust="spacing" textLength="44" x="717.5" y="475.8467">Player</text><line style="stroke:#181818;stroke-width:0.5;" x1="689.5" x2="763.5" y1="487" y2="487"/><line style="stroke:#181818;stroke-width:0.5;" x1="689.5" x2="763.5" y1="495" y2="495"/></g><!--class ScreenOverlay--><g id="elem_ScreenOverlay"><rect codeLine="20" fill="#F1F1F1" height="56.2656" id="ScreenOverlay" rx="2.5" ry="2.5" style="stroke:#181818;stroke-width:0.5;" width="136" x="911.5" y="123"/><ellipse cx="926.5" cy="143.1328" fill="#EB937F" rx="11" ry="11" style="stroke:#181818;stroke-width:1.0;"/><path d="M925.2969,144.0078 L926.75,144.0078 L926.75,144.1172 C926.75,144.5234 926.7813,144.6797 926.8594,144.8359 C927.0156,145.0859 927.2969,145.2422 927.5938,145.2422 C927.8438,145.2422 928.1094,145.1016 928.2656,144.8828 C928.3906,144.7266 928.4219,144.5703 928.4219,144.1172 L928.4219,142.1953 C928.4219,142.0391 928.4219,141.9922 928.4063,141.8359 C928.3438,141.3672 928.0313,141.0547 927.5781,141.0547 C927.3281,141.0547 927.0625,141.1953 926.8906,141.4141 C926.7813,141.5859 926.75,141.7422 926.75,142.1953 L926.75,142.3203 L925.2969,142.3203 L925.2969,139.9141 L929.2813,139.9141 L929.2813,140.7734 C929.2813,141.1797 929.3125,141.3516 929.3906,141.5078 C929.5625,141.7578 929.8438,141.9141 930.125,141.9141 C930.3906,141.9141 930.6563,141.7734 930.8281,141.5547 C930.9375,141.3828 930.9688,141.2422 930.9688,140.7734 L930.9688,138.2266 L923.3438,138.2266 C922.9063,138.2266 922.7813,138.2422 922.625,138.3359 C922.375,138.4922 922.2188,138.7891 922.2188,139.0703 C922.2188,139.3516 922.3594,139.6016 922.5781,139.7734 C922.7344,139.8828 922.9219,139.9141 923.3438,139.9141 L923.5938,139.9141 L923.5938,146.4297 L923.3438,146.4297 C922.9375,146.4297 922.7813,146.4453 922.625,146.5547 C922.375,146.7266 922.2188,146.9922 922.2188,147.2891 C922.2188,147.5547 922.3594,147.8047 922.5781,147.9609 C922.7188,148.0859 922.9531,148.1328 923.3438,148.1328 L931.3438,148.1328 L931.3438,145.5547 C931.3438,145.1172 931.3125,144.9766 931.2344,144.8203 C931.0625,144.5703 930.7813,144.4141 930.5,144.4141 C930.2344,144.4141 929.9688,144.5234 929.7969,144.7734 C929.6875,144.9297 929.6563,145.0703 929.6563,145.5547 L929.6563,146.4297 L925.2969,146.4297 L925.2969,144.0078 Z " fill="#000000"/><text fill="#000000" font-family="sans-serif" font-size="12" font-style="italic" lengthAdjust="spacing" textLength="91" x="947" y="139.1387">&#171;enumeration&#187;</text><text fill="#000000" font-family="sans-serif" font-size="14" lengthAdjust="spacing" textLength="104" x="940.5" y="154.9639">ScreenOverlay</text><line style="stroke:#181818;stroke-width:0.5;" x1="912.5" x2="1046.5" y1="163.2656" y2="163.2656"/><line style="stroke:#181818;stroke-width:0.5;" x1="912.5" x2="1046.5" y1="171.2656" y2="171.2656"/></g><!--class SettingsScreen--><g id="elem_SettingsScreen"><rect codeLine="21" fill="#F1F1F1" height="48" id="SettingsScreen" rx="2.5" ry="2.5" style="stroke:#181818;stroke-width:0.5;" width="143" x="20" y="347"/><ellipse cx="35" cy="363" fill="#ADD1B2" rx="11" ry="11" style="stroke:#181818;stroke-width:1.0;"/><path d="M37.3438,358.6719 C36.4063,358.2344 35.8125,358.0938 34.9375,358.0938 C32.3125,358.0938 30.3125,360.1719 30.3125,362.8906 L30.3125,364.0156 C30.3125,366.5938 32.4219,368.4844 35.3125,368.4844 C36.5313,368.4844 37.6875,368.1875 38.4375,367.6406 C39.0156,367.2344 39.3438,366.7813 39.3438,366.3906 C39.3438,365.9375 38.9531,365.5469 38.4844,365.5469 C38.2656,365.5469 38.0625,365.625 37.875,365.8125 C37.4219,366.2969 37.4219,366.2969 37.2344,366.3906 C36.8125,366.6563 36.125,366.7813 35.3594,366.7813 C33.3125,366.7813 32.0156,365.6875 32.0156,363.9844 L32.0156,362.8906 C32.0156,361.1094 33.2656,359.7969 35,359.7969 C35.5781,359.7969 36.1875,359.9531 36.6563,360.2031 C37.1406,360.4844 37.3125,360.7031 37.4063,361.1094 C37.4688,361.5156 37.5,361.6406 37.6406,361.7656 C37.7813,361.9063 38.0156,362.0156 38.2344,362.0156 C38.5,362.0156 38.7656,361.875 38.9375,361.6563 C39.0469,361.5 39.0781,361.3125 39.0781,360.8906 L39.0781,359.4688 C39.0781,359.0313 39.0625,358.9063 38.9688,358.75 C38.8125,358.4844 38.5313,358.3438 38.2344,358.3438 C37.9375,358.3438 37.7344,358.4375 37.5156,358.75 L37.3438,358.6719 Z " fill="#000000"/><text fill="#000000" font-family="sans-serif" font-size="14" lengthAdjust="spacing" textLength="111" x="49" y="367.8467">SettingsScreen</text><line style="stroke:#181818;stroke-width:0.5;" x1="21" x2="162" y1="379" y2="379"/><line style="stroke:#181818;stroke-width:0.5;" x1="21" x2="162" y1="387" y2="387"/></g><!--class ShotGun--><g id="elem_ShotGun"><rect codeLine="22" fill="#F1F1F1" height="48" id="ShotGun" rx="2.5" ry="2.5" style="stroke:#181818;stroke-width:0.5;" width="94" x="1308.5" y="563"/><ellipse cx="1323.5" cy="579" fill="#ADD1B2" rx="11" ry="11" style="stroke:#181818;stroke-width:1.0;"/><path d="M1325.8438,574.6719 C1324.9063,574.2344 1324.3125,574.0938 1323.4375,574.0938 C1320.8125,574.0938 1318.8125,576.1719 1318.8125,578.8906 L1318.8125,580.0156 C1318.8125,582.5938 1320.9219,584.4844 1323.8125,584.4844 C1325.0313,584.4844 1326.1875,584.1875 1326.9375,583.6406 C1327.5156,583.2344 1327.8438,582.7813 1327.8438,582.3906 C1327.8438,581.9375 1327.4531,581.5469 1326.9844,581.5469 C1326.7656,581.5469 1326.5625,581.625 1326.375,581.8125 C1325.9219,582.2969 1325.9219,582.2969 1325.7344,582.3906 C1325.3125,582.6563 1324.625,582.7813 1323.8594,582.7813 C1321.8125,582.7813 1320.5156,581.6875 1320.5156,579.9844 L1320.5156,578.8906 C1320.5156,577.1094 1321.7656,575.7969 1323.5,575.7969 C1324.0781,575.7969 1324.6875,575.9531 1325.1563,576.2031 C1325.6406,576.4844 1325.8125,576.7031 1325.9063,577.1094 C1325.9688,577.5156 1326,577.6406 1326.1406,577.7656 C1326.2813,577.9063 1326.5156,578.0156 1326.7344,578.0156 C1327,578.0156 1327.2656,577.875 1327.4375,577.6563 C1327.5469,577.5 1327.5781,577.3125 1327.5781,576.8906 L1327.5781,575.4688 C1327.5781,575.0313 1327.5625,574.9063 1327.4688,574.75 C1327.3125,574.4844 1327.0313,574.3438 1326.7344,574.3438 C1326.4375,574.3438 1326.2344,574.4375 1326.0156,574.75 L1325.8438,574.6719 Z " fill="#000000"/><text fill="#000000" font-family="sans-serif" font-size="14" lengthAdjust="spacing" textLength="62" x="1337.5" y="583.8467">ShotGun</text><line style="stroke:#181818;stroke-width:0.5;" x1="1309.5" x2="1401.5" y1="595" y2="595"/><line style="stroke:#181818;stroke-width:0.5;" x1="1309.5" x2="1401.5" y1="603" y2="603"/></g><!--class UnderwatchGame--><g id="elem_UnderwatchGame"><rect codeLine="23" fill="#F1F1F1" height="48" id="UnderwatchGame" rx="2.5" ry="2.5" style="stroke:#181818;stroke-width:0.5;" width="159" x="270" y="239"/><ellipse cx="285" cy="255" fill="#ADD1B2" rx="11" ry="11" style="stroke:#181818;stroke-width:1.0;"/><path d="M287.3438,250.6719 C286.4063,250.2344 285.8125,250.0938 284.9375,250.0938 C282.3125,250.0938 280.3125,252.1719 280.3125,254.8906 L280.3125,256.0156 C280.3125,258.5938 282.4219,260.4844 285.3125,260.4844 C286.5313,260.4844 287.6875,260.1875 288.4375,259.6406 C289.0156,259.2344 289.3438,258.7813 289.3438,258.3906 C289.3438,257.9375 288.9531,257.5469 288.4844,257.5469 C288.2656,257.5469 288.0625,257.625 287.875,257.8125 C287.4219,258.2969 287.4219,258.2969 287.2344,258.3906 C286.8125,258.6563 286.125,258.7813 285.3594,258.7813 C283.3125,258.7813 282.0156,257.6875 282.0156,255.9844 L282.0156,254.8906 C282.0156,253.1094 283.2656,251.7969 285,251.7969 C285.5781,251.7969 286.1875,251.9531 286.6563,252.2031 C287.1406,252.4844 287.3125,252.7031 287.4063,253.1094 C287.4688,253.5156 287.5,253.6406 287.6406,253.7656 C287.7813,253.9063 288.0156,254.0156 288.2344,254.0156 C288.5,254.0156 288.7656,253.875 288.9375,253.6563 C289.0469,253.5 289.0781,253.3125 289.0781,252.8906 L289.0781,251.4688 C289.0781,251.0313 289.0625,250.9063 288.9688,250.75 C288.8125,250.4844 288.5313,250.3438 288.2344,250.3438 C287.9375,250.3438 287.7344,250.4375 287.5156,250.75 L287.3438,250.6719 Z " fill="#000000"/><text fill="#000000" font-family="sans-serif" font-size="14" lengthAdjust="spacing" textLength="127" x="299" y="259.8467">UnderwatchGame</text><line style="stroke:#181818;stroke-width:0.5;" x1="271" x2="428" y1="271" y2="271"/><line style="stroke:#181818;stroke-width:0.5;" x1="271" x2="428" y1="279" y2="279"/></g><!--class Weapon--><g id="elem_Weapon"><rect codeLine="24" fill="#F1F1F1" height="56.2656" id="Weapon" rx="2.5" ry="2.5" style="stroke:#181818;stroke-width:0.5;" width="95" x="1023" y="671"/><ellipse cx="1038" cy="691.1328" fill="#B4A7E5" rx="11" ry="11" style="stroke:#181818;stroke-width:1.0;"/><path d="M1038.9531,687.9141 L1040.6719,687.9141 C1041.0625,687.9141 1041.25,687.8828 1041.375,687.8047 C1041.6406,687.6484 1041.7813,687.3672 1041.7813,687.0703 C1041.7813,686.8047 1041.6719,686.5391 1041.4375,686.3672 C1041.2656,686.2578 1041.125,686.2266 1040.6719,686.2266 L1035.5313,686.2266 C1035.0938,686.2266 1034.9688,686.2422 1034.8125,686.3359 C1034.5625,686.4922 1034.4063,686.7891 1034.4063,687.0703 C1034.4063,687.3516 1034.5469,687.6016 1034.7656,687.7734 C1034.9219,687.8828 1035.1094,687.9141 1035.5313,687.9141 L1037.25,687.9141 L1037.25,694.4297 L1035.5313,694.4297 C1035.0938,694.4297 1034.9688,694.4453 1034.8125,694.5547 C1034.5625,694.7109 1034.4063,694.9922 1034.4063,695.2891 C1034.4063,695.5391 1034.5469,695.8047 1034.7656,695.9609 C1034.9219,696.0859 1035.125,696.1328 1035.5313,696.1328 L1040.6719,696.1328 C1041.4219,696.1328 1041.7813,695.8516 1041.7813,695.2891 C1041.7813,695.0078 1041.6719,694.7578 1041.4375,694.5859 C1041.2656,694.4609 1041.125,694.4297 1040.6719,694.4297 L1038.9531,694.4297 L1038.9531,687.9141 Z " fill="#000000"/><text fill="#000000" font-family="sans-serif" font-size="12" font-style="italic" lengthAdjust="spacing" textLength="67" x="1050" y="687.1387">&#171;interface&#187;</text><text fill="#000000" font-family="sans-serif" font-size="14" font-style="italic" lengthAdjust="spacing" textLength="59" x="1054" y="702.9639">Weapon</text><line style="stroke:#181818;stroke-width:0.5;" x1="1024" x2="1117" y1="711.2656" y2="711.2656"/><line style="stroke:#181818;stroke-width:0.5;" x1="1024" x2="1117" y1="719.2656" y2="719.2656"/></g><!--class WorldController--><g id="elem_WorldController"><rect codeLine="25" fill="#F1F1F1" height="48" id="WorldController" rx="2.5" ry="2.5" style="stroke:#181818;stroke-width:0.5;" width="147" x="604" y="239"/><ellipse cx="619" cy="255" fill="#ADD1B2" rx="11" ry="11" style="stroke:#181818;stroke-width:1.0;"/><path d="M621.3438,250.6719 C620.4063,250.2344 619.8125,250.0938 618.9375,250.0938 C616.3125,250.0938 614.3125,252.1719 614.3125,254.8906 L614.3125,256.0156 C614.3125,258.5938 616.4219,260.4844 619.3125,260.4844 C620.5313,260.4844 621.6875,260.1875 622.4375,259.6406 C623.0156,259.2344 623.3438,258.7813 623.3438,258.3906 C623.3438,257.9375 622.9531,257.5469 622.4844,257.5469 C622.2656,257.5469 622.0625,257.625 621.875,257.8125 C621.4219,258.2969 621.4219,258.2969 621.2344,258.3906 C620.8125,258.6563 620.125,258.7813 619.3594,258.7813 C617.3125,258.7813 616.0156,257.6875 616.0156,255.9844 L616.0156,254.8906 C616.0156,253.1094 617.2656,251.7969 619,251.7969 C619.5781,251.7969 620.1875,251.9531 620.6563,252.2031 C621.1406,252.4844 621.3125,252.7031 621.4063,253.1094 C621.4688,253.5156 621.5,253.6406 621.6406,253.7656 C621.7813,253.9063 622.0156,254.0156 622.2344,254.0156 C622.5,254.0156 622.7656,253.875 622.9375,253.6563 C623.0469,253.5 623.0781,253.3125 623.0781,252.8906 L623.0781,251.4688 C623.0781,251.0313 623.0625,250.9063 622.9688,250.75 C622.8125,250.4844 622.5313,250.3438 622.2344,250.3438 C621.9375,250.3438 621.7344,250.4375 621.5156,250.75 L621.3438,250.6719 Z " fill="#000000"/><text fill="#000000" font-family="sans-serif" font-size="14" lengthAdjust="spacing" textLength="115" x="633" y="259.8467">WorldController</text><line style="stroke:#181818;stroke-width:0.5;" x1="605" x2="750" y1="271" y2="271"/><line style="stroke:#181818;stroke-width:0.5;" x1="605" x2="750" y1="279" y2="279"/></g><!--class WorldListener--><g id="elem_WorldListener"><rect codeLine="26" fill="#F1F1F1" height="48" id="WorldListener" rx="2.5" ry="2.5" style="stroke:#181818;stroke-width:0.5;" width="133" x="1083" y="127"/><ellipse cx="1098" cy="143" fill="#ADD1B2" rx="11" ry="11" style="stroke:#181818;stroke-width:1.0;"/><path d="M1100.3438,138.6719 C1099.4063,138.2344 1098.8125,138.0938 1097.9375,138.0938 C1095.3125,138.0938 1093.3125,140.1719 1093.3125,142.8906 L1093.3125,144.0156 C1093.3125,146.5938 1095.4219,148.4844 1098.3125,148.4844 C1099.5313,148.4844 1100.6875,148.1875 1101.4375,147.6406 C1102.0156,147.2344 1102.3438,146.7813 1102.3438,146.3906 C1102.3438,145.9375 1101.9531,145.5469 1101.4844,145.5469 C1101.2656,145.5469 1101.0625,145.625 1100.875,145.8125 C1100.4219,146.2969 1100.4219,146.2969 1100.2344,146.3906 C1099.8125,146.6563 1099.125,146.7813 1098.3594,146.7813 C1096.3125,146.7813 1095.0156,145.6875 1095.0156,143.9844 L1095.0156,142.8906 C1095.0156,141.1094 1096.2656,139.7969 1098,139.7969 C1098.5781,139.7969 1099.1875,139.9531 1099.6563,140.2031 C1100.1406,140.4844 1100.3125,140.7031 1100.4063,141.1094 C1100.4688,141.5156 1100.5,141.6406 1100.6406,141.7656 C1100.7813,141.9063 1101.0156,142.0156 1101.2344,142.0156 C1101.5,142.0156 1101.7656,141.875 1101.9375,141.6563 C1102.0469,141.5 1102.0781,141.3125 1102.0781,140.8906 L1102.0781,139.4688 C1102.0781,139.0313 1102.0625,138.9063 1101.9688,138.75 C1101.8125,138.4844 1101.5313,138.3438 1101.2344,138.3438 C1100.9375,138.3438 1100.7344,138.4375 1100.5156,138.75 L1100.3438,138.6719 Z " fill="#000000"/><text fill="#000000" font-family="sans-serif" font-size="14" lengthAdjust="spacing" textLength="101" x="1112" y="147.8467">WorldListener</text><line style="stroke:#181818;stroke-width:0.5;" x1="1084" x2="1215" y1="159" y2="159"/><line style="stroke:#181818;stroke-width:0.5;" x1="1084" x2="1215" y1="167" y2="167"/></g><!--class WorldParser--><g id="elem_WorldParser"><rect codeLine="27" fill="#F1F1F1" height="48" id="WorldParser" rx="2.5" ry="2.5" style="stroke:#181818;stroke-width:0.5;" width="119" x="436" y="347"/><ellipse cx="451" cy="363" fill="#ADD1B2" rx="11" ry="11" style="stroke:#181818;stroke-width:1.0;"/><path d="M453.3438,358.6719 C452.4063,358.2344 451.8125,358.0938 450.9375,358.0938 C448.3125,358.0938 446.3125,360.1719 446.3125,362.8906 L446.3125,364.0156 C446.3125,366.5938 448.4219,368.4844 451.3125,368.4844 C452.5313,368.4844 453.6875,368.1875 454.4375,367.6406 C455.0156,367.2344 455.3438,366.7813 455.3438,366.3906 C455.3438,365.9375 454.9531,365.5469 454.4844,365.5469 C454.2656,365.5469 454.0625,365.625 453.875,365.8125 C453.4219,366.2969 453.4219,366.2969 453.2344,366.3906 C452.8125,366.6563 452.125,366.7813 451.3594,366.7813 C449.3125,366.7813 448.0156,365.6875 448.0156,363.9844 L448.0156,362.8906 C448.0156,361.1094 449.2656,359.7969 451,359.7969 C451.5781,359.7969 452.1875,359.9531 452.6563,360.2031 C453.1406,360.4844 453.3125,360.7031 453.4063,361.1094 C453.4688,361.5156 453.5,361.6406 453.6406,361.7656 C453.7813,361.9063 454.0156,362.0156 454.2344,362.0156 C454.5,362.0156 454.7656,361.875 454.9375,361.6563 C455.0469,361.5 455.0781,361.3125 455.0781,360.8906 L455.0781,359.4688 C455.0781,359.0313 455.0625,358.9063 454.9688,358.75 C454.8125,358.4844 454.5313,358.3438 454.2344,358.3438 C453.9375,358.3438 453.7344,358.4375 453.5156,358.75 L453.3438,358.6719 Z " fill="#000000"/><text fill="#000000" font-family="sans-serif" font-size="14" lengthAdjust="spacing" textLength="87" x="465" y="367.8467">WorldParser</text><line style="stroke:#181818;stroke-width:0.5;" x1="437" x2="554" y1="379" y2="379"/><line style="stroke:#181818;stroke-width:0.5;" x1="437" x2="554" y1="387" y2="387"/></g><!--class WorldRenderer--><g id="elem_WorldRenderer"><rect codeLine="28" fill="#F1F1F1" height="48" id="WorldRenderer" rx="2.5" ry="2.5" style="stroke:#181818;stroke-width:0.5;" width="141" x="735" y="127"/><ellipse cx="750" cy="143" fill="#ADD1B2" rx="11" ry="11" style="stroke:#181818;stroke-width:1.0;"/><path d="M752.3438,138.6719 C751.4063,138.2344 750.8125,138.0938 749.9375,138.0938 C747.3125,138.0938 745.3125,140.1719 745.3125,142.8906 L745.3125,144.0156 C745.3125,146.5938 747.4219,148.4844 750.3125,148.4844 C751.5313,148.4844 752.6875,148.1875 753.4375,147.6406 C754.0156,147.2344 754.3438,146.7813 754.3438,146.3906 C754.3438,145.9375 753.9531,145.5469 753.4844,145.5469 C753.2656,145.5469 753.0625,145.625 752.875,145.8125 C752.4219,146.2969 752.4219,146.2969 752.2344,146.3906 C751.8125,146.6563 751.125,146.7813 750.3594,146.7813 C748.3125,146.7813 747.0156,145.6875 747.0156,143.9844 L747.0156,142.8906 C747.0156,141.1094 748.2656,139.7969 750,139.7969 C750.5781,139.7969 751.1875,139.9531 751.6563,140.2031 C752.1406,140.4844 752.3125,140.7031 752.4063,141.1094 C752.4688,141.5156 752.5,141.6406 752.6406,141.7656 C752.7813,141.9063 753.0156,142.0156 753.2344,142.0156 C753.5,142.0156 753.7656,141.875 753.9375,141.6563 C754.0469,141.5 754.0781,141.3125 754.0781,140.8906 L754.0781,139.4688 C754.0781,139.0313 754.0625,138.9063 753.9688,138.75 C753.8125,138.4844 753.5313,138.3438 753.2344,138.3438 C752.9375,138.3438 752.7344,138.4375 752.5156,138.75 L752.3438,138.6719 Z " fill="#000000"/><text fill="#000000" font-family="sans-serif" font-size="14" lengthAdjust="spacing" textLength="109" x="764" y="147.8467">WorldRenderer</text><line style="stroke:#181818;stroke-width:0.5;" x1="736" x2="875" y1="159" y2="159"/><line style="stroke:#181818;stroke-width:0.5;" x1="736" x2="875" y1="167" y2="167"/></g><!--class WorldType--><g id="elem_WorldType"><rect codeLine="29" fill="#F1F1F1" height="56.2656" id="WorldType" rx="2.5" ry="2.5" style="stroke:#181818;stroke-width:0.5;" width="119" x="745" y="7"/><ellipse cx="760" cy="27.1328" fill="#EB937F" rx="11" ry="11" style="stroke:#181818;stroke-width:1.0;"/><path d="M758.7969,28.0078 L760.25,28.0078 L760.25,28.1172 C760.25,28.5234 760.2813,28.6797 760.3594,28.8359 C760.5156,29.0859 760.7969,29.2422 761.0938,29.2422 C761.3438,29.2422 761.6094,29.1016 761.7656,28.8828 C761.8906,28.7266 761.9219,28.5703 761.9219,28.1172 L761.9219,26.1953 C761.9219,26.0391 761.9219,25.9922 761.9063,25.8359 C761.8438,25.3672 761.5313,25.0547 761.0781,25.0547 C760.8281,25.0547 760.5625,25.1953 760.3906,25.4141 C760.2813,25.5859 760.25,25.7422 760.25,26.1953 L760.25,26.3203 L758.7969,26.3203 L758.7969,23.9141 L762.7813,23.9141 L762.7813,24.7734 C762.7813,25.1797 762.8125,25.3516 762.8906,25.5078 C763.0625,25.7578 763.3438,25.9141 763.625,25.9141 C763.8906,25.9141 764.1563,25.7734 764.3281,25.5547 C764.4375,25.3828 764.4688,25.2422 764.4688,24.7734 L764.4688,22.2266 L756.8438,22.2266 C756.4063,22.2266 756.2813,22.2422 756.125,22.3359 C755.875,22.4922 755.7188,22.7891 755.7188,23.0703 C755.7188,23.3516 755.8594,23.6016 756.0781,23.7734 C756.2344,23.8828 756.4219,23.9141 756.8438,23.9141 L757.0938,23.9141 L757.0938,30.4297 L756.8438,30.4297 C756.4375,30.4297 756.2813,30.4453 756.125,30.5547 C755.875,30.7266 755.7188,30.9922 755.7188,31.2891 C755.7188,31.5547 755.8594,31.8047 756.0781,31.9609 C756.2188,32.0859 756.4531,32.1328 756.8438,32.1328 L764.8438,32.1328 L764.8438,29.5547 C764.8438,29.1172 764.8125,28.9766 764.7344,28.8203 C764.5625,28.5703 764.2813,28.4141 764,28.4141 C763.7344,28.4141 763.4688,28.5234 763.2969,28.7734 C763.1875,28.9297 763.1563,29.0703 763.1563,29.5547 L763.1563,30.4297 L758.7969,30.4297 L758.7969,28.0078 Z " fill="#000000"/><text fill="#000000" font-family="sans-serif" font-size="12" font-style="italic" lengthAdjust="spacing" textLength="91" x="772" y="23.1387">&#171;enumeration&#187;</text><text fill="#000000" font-family="sans-serif" font-size="14" lengthAdjust="spacing" textLength="78" x="778.5" y="38.9639">WorldType</text><line style="stroke:#181818;stroke-width:0.5;" x1="746" x2="863" y1="47.2656" y2="47.2656"/><line style="stroke:#181818;stroke-width:0.5;" x1="746" x2="863" y1="55.2656" y2="55.2656"/></g><!--link AnimatedCollisionObject to AnimatedGameObject--><g id="link_AnimatedCollisionObject_AnimatedGameObject"><path codeLine="31" d="M465.5,611.027 C465.5,629.7954 465.5,637.7699 465.5,656.6265 " fill="none" id="AnimatedCollisionObject-to-AnimatedGameObject" style="stroke:#000082;stroke-width:1.0;"/><polygon fill="none" points="465.5,674.6265,471.5,656.6265,459.5,656.6265,465.5,674.6265" style="stroke:#000082;stroke-width:1.0;"/></g><!--link Bow to Weapon--><g id="link_Bow_Weapon"><path codeLine="32" d="M752.5,611.284 C752.5,646.3481 752.5,707 752.5,707 C752.5,707 916.181,707 1004.89,707 " fill="none" id="Bow-to-Weapon" style="stroke:#008200;stroke-width:1.0;stroke-dasharray:7.0,7.0;"/><polygon fill="none" points="1022.89,707,1004.89,701,1004.89,713,1022.89,707" style="stroke:#008200;stroke-width:1.0;"/></g><!--link CameraHelper to Player--><g id="link_CameraHelper_Player"><path codeLine="33" d="M754.856,383 C754.856,383 757.75,420.336 757.75,448.775 " fill="none" id="CameraHelper-Player" style="stroke:#595959;stroke-width:1.0;"/><polygon fill="#595959" points="766.856,383,760.856,379,754.856,383,760.856,387,766.856,383" style="stroke:#595959;stroke-width:1.0;"/><polygon fill="#595959" points="757.75,454.775,761.75,445.775,757.75,449.775,753.75,445.775,757.75,454.775" style="stroke:#595959;stroke-width:1.0;"/><text fill="#000000" font-family="sans-serif" font-size="13" lengthAdjust="spacing" textLength="8" x="751.0199" y="397.207">1</text><text fill="#000000" font-family="sans-serif" font-size="13" lengthAdjust="spacing" textLength="39" x="721.1734" y="428.7791">target</text><text fill="#000000" font-family="sans-serif" font-size="13" lengthAdjust="spacing" textLength="8" x="736.6734" y="443.9119">1</text></g><!--link CandleStick to AnimatedCollisionObject--><g id="link_CandleStick_AnimatedCollisionObject"><path codeLine="34" d="M450.333,503.237 C450.333,521.024 450.333,527.076 450.333,544.844 " fill="none" id="CandleStick-to-AnimatedCollisionObject" style="stroke:#000082;stroke-width:1.0;"/><polygon fill="none" points="450.333,562.844,456.333,544.844,444.333,544.844,450.333,562.844" style="stroke:#000082;stroke-width:1.0;"/></g><!--link Chest to AnimatedCollisionObject--><g id="link_Chest_AnimatedCollisionObject"><path codeLine="35" d="M284.25,503.237 C284.25,521.024 284.25,527.076 284.25,544.844 " fill="none" id="Chest-to-AnimatedCollisionObject" style="stroke:#000082;stroke-width:1.0;"/><polygon fill="none" points="284.25,562.844,290.25,544.844,278.25,544.844,284.25,562.844" style="stroke:#000082;stroke-width:1.0;"/></g><!--link Coin to AnimatedCollisionObject--><g id="link_Coin_AnimatedCollisionObject"><path codeLine="36" d="M370.5,503.237 C370.5,521.024 370.5,527.076 370.5,544.844 " fill="none" id="Coin-to-AnimatedCollisionObject" style="stroke:#000082;stroke-width:1.0;"/><polygon fill="none" points="370.5,562.844,376.5,544.844,364.5,544.844,370.5,562.844" style="stroke:#000082;stroke-width:1.0;"/></g><!--link Enemy to AnimatedGameObject--><g id="link_Enemy_AnimatedGameObject"><path codeLine="37" d="M551.5,611.027 C551.5,629.7954 551.5,637.7699 551.5,656.6265 " fill="none" id="Enemy-to-AnimatedGameObject" style="stroke:#000082;stroke-width:1.0;"/><polygon fill="none" points="551.5,674.6265,557.5,656.6265,545.5,656.6265,551.5,674.6265" style="stroke:#000082;stroke-width:1.0;"/></g><!--link GameScreen to AbstractGameScreen--><g id="link_GameScreen_AbstractGameScreen"><path codeLine="38" d="M585.023,35 C456.267,35 173.333,35 173.333,35 C173.333,35 173.333,344.16 173.333,436.813 " fill="none" id="GameScreen-to-AbstractGameScreen" style="stroke:#000082;stroke-width:1.0;"/><polygon fill="none" points="173.333,454.813,179.333,436.813,167.333,436.813,173.333,454.813" style="stroke:#000082;stroke-width:1.0;"/></g><!--link GameScreen to ScreenOverlay--><g id="link_GameScreen_ScreenOverlay"><path codeLine="39" d="M674.333,71.166 C674.333,90.711 674.333,103 674.333,103 C674.333,103 979.5,103 979.5,103 C979.5,103 979.5,106.352 979.5,116.801 " fill="none" id="GameScreen-ScreenOverlay" style="stroke:#595959;stroke-width:1.0;"/><polygon fill="#595959" points="674.333,59.166,670.333,65.166,674.333,71.166,678.333,65.166,674.333,59.166" style="stroke:#595959;stroke-width:1.0;"/><polygon fill="#595959" points="979.5,122.801,983.5,113.801,979.5,117.801,975.5,113.801,979.5,122.801" style="stroke:#595959;stroke-width:1.0;"/><text fill="#000000" font-family="sans-serif" font-size="13" lengthAdjust="spacing" textLength="8" x="671.8985" y="78.9677">1</text><text fill="#000000" font-family="sans-serif" font-size="13" lengthAdjust="spacing" textLength="48" x="927.075" y="96.9031">overlay</text><text fill="#000000" font-family="sans-serif" font-size="13" lengthAdjust="spacing" textLength="8" x="947.075" y="112.0359">1</text></g><!--link GameScreen to WorldController--><g id="link_GameScreen_WorldController"><path codeLine="40" d="M621.583,71.4 C621.583,115.284 621.583,189.02 621.583,232.775 " fill="none" id="GameScreen-WorldController" style="stroke:#595959;stroke-width:1.0;"/><polygon fill="#595959" points="621.583,59.4,617.583,65.4,621.583,71.4,625.583,65.4,621.583,59.4" style="stroke:#595959;stroke-width:1.0;"/><polygon fill="#595959" points="621.583,238.775,625.583,229.775,621.583,233.775,617.583,229.775,621.583,238.775" style="stroke:#595959;stroke-width:1.0;"/><text fill="#000000" font-family="sans-serif" font-size="13" lengthAdjust="spacing" textLength="8" x="606.2907" y="79.2587">1</text><text fill="#000000" font-family="sans-serif" font-size="13" lengthAdjust="spacing" textLength="97" x="503.047" y="212.7791">worldController</text><text fill="#000000" font-family="sans-serif" font-size="13" lengthAdjust="spacing" textLength="8" x="547.547" y="227.9119">1</text></g><!--link GameScreen to WorldController--><g id="link_GameScreen_WorldController"><path codeLine="41" d="M639.167,59.4 C639.167,103.284 639.167,189.02 639.167,232.775 " fill="none" id="GameScreen-to-WorldController" style="stroke:#595959;stroke-width:1.0;stroke-dasharray:7.0,7.0;"/><polygon fill="#595959" points="639.167,238.775,643.167,229.775,639.167,233.775,635.167,229.775,639.167,238.775" style="stroke:#595959;stroke-width:1.0;"/><text fill="#000000" font-family="sans-serif" font-size="13" lengthAdjust="spacing" textLength="41" x="597.167" y="145.1549">create</text></g><!--link WorldController to GameScreen--><g id="link_WorldController_GameScreen"><path codeLine="60" d="M656.75,238.6 C656.75,194.716 656.75,108.98 656.75,65.225 " fill="none" id="WorldController-to-GameScreen" style="stroke:#595959;stroke-width:1.0;stroke-dasharray:7.0,7.0;"/><polygon fill="#595959" points="656.75,59.225,652.75,68.225,656.75,64.225,660.75,68.225,656.75,59.225" style="stroke:#595959;stroke-width:1.0;"/><text fill="#000000" font-family="sans-serif" font-size="13" lengthAdjust="spacing" textLength="41" x="657.75" y="144.9789">create</text></g><!--link GameScreen to WorldListener--><g id="link_GameScreen_WorldListener"><path codeLine="42" d="M691.917,59.281 C691.917,71.187 691.917,83 691.917,83 C691.917,83 1149.5,83 1149.5,83 C1149.5,83 1149.5,101.289 1149.5,120.834 " fill="none" id="GameScreen-to-WorldListener" style="stroke:#595959;stroke-width:1.0;stroke-dasharray:7.0,7.0;"/><polygon fill="#595959" points="1149.5,126.834,1153.5,117.834,1149.5,121.834,1145.5,117.834,1149.5,126.834" style="stroke:#595959;stroke-width:1.0;"/><text fill="#000000" font-family="sans-serif" font-size="13" lengthAdjust="spacing" textLength="41" x="888.766" y="79.0669">create</text></g><!--link GameScreen to WorldRenderer--><g id="link_GameScreen_WorldRenderer"><path codeLine="43" d="M721.523,27 C739.154,27 741.667,27 741.667,27 C741.667,27 741.667,84.711 741.667,120.797 " fill="none" id="GameScreen-WorldRenderer" style="stroke:#595959;stroke-width:1.0;"/><polygon fill="#595959" points="709.523,27,715.523,31,721.523,27,715.523,23,709.523,27" style="stroke:#595959;stroke-width:1.0;"/><polygon fill="#595959" points="741.667,126.797,745.667,117.797,741.667,121.797,737.667,117.797,741.667,126.797" style="stroke:#595959;stroke-width:1.0;"/><text fill="#000000" font-family="sans-serif" font-size="13" lengthAdjust="spacing" textLength="8" x="717.5696" y="22.1859">1</text><text fill="#000000" font-family="sans-serif" font-size="13" lengthAdjust="spacing" textLength="94" x="632.7738" y="103.6138">worldRenderer</text><text fill="#000000" font-family="sans-serif" font-size="13" lengthAdjust="spacing" textLength="8" x="675.7738" y="118.7467">1</text></g><!--link GameScreen to WorldRenderer--><g id="link_GameScreen_WorldRenderer"><path codeLine="44" d="M709.593,43 C725.56,43 738.333,43 738.333,43 C738.333,43 738.333,88.921 738.333,120.763 " fill="none" id="GameScreen-to-WorldRenderer" style="stroke:#595959;stroke-width:1.0;stroke-dasharray:7.0,7.0;"/><polygon fill="#595959" points="738.333,126.763,742.333,117.763,738.333,121.763,734.333,117.763,738.333,126.763" style="stroke:#595959;stroke-width:1.0;"/><text fill="#000000" font-family="sans-serif" font-size="13" lengthAdjust="spacing" textLength="41" x="696.333" y="83.5779">create</text></g><!--link HandGun to Weapon--><g id="link_HandGun_Weapon"><path codeLine="45" d="M866.5,611.121 C866.5,641.8438 866.5,691 866.5,691 C866.5,691 944.648,691 1004.93,691 " fill="none" id="HandGun-to-Weapon" style="stroke:#008200;stroke-width:1.0;stroke-dasharray:7.0,7.0;"/><polygon fill="none" points="1022.93,691,1004.93,685,1004.93,697,1022.93,691" style="stroke:#008200;stroke-width:1.0;"/></g><!--link Key to AnimatedGameObject--><g id="link_Key_AnimatedGameObject"><path codeLine="46" d="M637.5,611.027 C637.5,629.7954 637.5,637.7699 637.5,656.6265 " fill="none" id="Key-to-AnimatedGameObject" style="stroke:#000082;stroke-width:1.0;"/><polygon fill="none" points="637.5,674.6265,643.5,656.6265,631.5,656.6265,637.5,674.6265" style="stroke:#000082;stroke-width:1.0;"/></g><!--link LaserGun to Weapon--><g id="link_LaserGun_Weapon"><path codeLine="47" d="M1035.25,611.027 C1035.25,628.5099 1035.25,634.2455 1035.25,652.6563 " fill="none" id="LaserGun-to-Weapon" style="stroke:#008200;stroke-width:1.0;stroke-dasharray:7.0,7.0;"/><polygon fill="none" points="1035.25,670.6563,1041.25,652.6563,1029.25,652.6563,1035.25,670.6563" style="stroke:#008200;stroke-width:1.0;"/></g><!--link MachineGun to Weapon--><g id="link_MachineGun_Weapon"><path codeLine="48" d="M1100.5,611.027 C1100.5,628.5099 1100.5,634.2455 1100.5,652.6563 " fill="none" id="MachineGun-to-Weapon" style="stroke:#008200;stroke-width:1.0;stroke-dasharray:7.0,7.0;"/><polygon fill="none" points="1100.5,670.6563,1106.5,652.6563,1094.5,652.6563,1100.5,670.6563" style="stroke:#008200;stroke-width:1.0;"/></g><!--link MenuScreen to AbstractGameScreen--><g id="link_MenuScreen_AbstractGameScreen"><path codeLine="49" d="M280.313,371 C236.085,371 183.667,371 183.667,371 C183.667,371 183.667,404.921 183.667,436.763 " fill="none" id="MenuScreen-to-AbstractGameScreen" style="stroke:#000082;stroke-width:1.0;"/><polygon fill="none" points="183.667,454.763,189.667,436.763,177.667,436.763,183.667,454.763" style="stroke:#000082;stroke-width:1.0;"/></g><!--link MenuScreen to GameScreen--><g id="link_MenuScreen_GameScreen"><path codeLine="50" d="M360.5,346.843 C360.5,332.465 360.5,317 360.5,317 C360.5,317 598,317 598,317 C598,317 598,133.239 598,65.043 " fill="none" id="MenuScreen-to-GameScreen" style="stroke:#595959;stroke-width:1.0;stroke-dasharray:7.0,7.0;"/><polygon fill="#595959" points="598,59.043,594,68.043,598,64.043,602,68.043,598,59.043" style="stroke:#595959;stroke-width:1.0;"/><text fill="#000000" font-family="sans-serif" font-size="13" lengthAdjust="spacing" textLength="41" x="551.307" y="313.0669">create</text></g><!--link Player to AnimatedCollisionObject--><g id="link_Player_AnimatedCollisionObject"><path codeLine="51" d="M705,503.157 C705,517.535 705,533 705,533 C705,533 463.167,533 463.167,533 C463.167,533 463.167,530.465 463.167,544.843 " fill="none" id="Player-to-AnimatedCollisionObject" style="stroke:#000082;stroke-width:1.0;"/><polygon fill="none" points="463.167,562.843,469.167,544.843,457.167,544.843,463.167,562.843" style="stroke:#000082;stroke-width:1.0;"/></g><!--link Player to Bow--><g id="link_Player_Bow"><path codeLine="52" d="M743,503.237 C743,521.024 743,539.076 743,556.844 " fill="none" id="Player-to-Bow" style="stroke:#595959;stroke-width:1.0;stroke-dasharray:7.0,7.0;"/><polygon fill="#595959" points="743,562.844,747,553.844,743,557.844,739,553.844,743,562.844" style="stroke:#595959;stroke-width:1.0;"/><text fill="#000000" font-family="sans-serif" font-size="13" lengthAdjust="spacing" textLength="41" x="701" y="529.1069">create</text></g><!--link Player to Weapon--><g id="link_Player_Weapon"><path codeLine="53" d="M776.7,479 C865.292,479 1065.25,479 1065.25,479 C1065.25,479 1065.25,605.271 1065.25,664.6892 " fill="none" id="Player-Weapon" style="stroke:#595959;stroke-width:1.0;"/><polygon fill="#595959" points="764.7,479,770.7,483,776.7,479,770.7,475,764.7,479" style="stroke:#595959;stroke-width:1.0;"/><polygon fill="#595959" points="1065.25,670.6892,1069.25,661.6892,1065.25,665.6892,1061.25,661.6892,1065.25,670.6892" style="stroke:#595959;stroke-width:1.0;"/><text fill="#000000" font-family="sans-serif" font-size="13" lengthAdjust="spacing" textLength="8" x="772.4806" y="474.6963">1</text><text fill="#000000" font-family="sans-serif" font-size="13" lengthAdjust="spacing" textLength="51" x="1008.5805" y="644.7707">weapon</text><text fill="#000000" font-family="sans-serif" font-size="13" lengthAdjust="spacing" textLength="8" x="1030.0805" y="659.9035">1</text></g><!--link SettingsScreen to AbstractGameScreen--><g id="link_SettingsScreen_AbstractGameScreen"><path codeLine="54" d="M91.5,395.237 C91.5,413.024 91.5,419.076 91.5,436.844 " fill="none" id="SettingsScreen-to-AbstractGameScreen" style="stroke:#000082;stroke-width:1.0;"/><polygon fill="none" points="91.5,454.844,97.5,436.844,85.5,436.844,91.5,454.844" style="stroke:#000082;stroke-width:1.0;"/></g><!--link ShotGun to Weapon--><g id="link_ShotGun_Weapon"><path codeLine="55" d="M1355.5,611.027 C1355.5,643.9361 1355.5,699 1355.5,699 C1355.5,699 1217.34,699 1136.2,699 " fill="none" id="ShotGun-to-Weapon" style="stroke:#008200;stroke-width:1.0;stroke-dasharray:7.0,7.0;"/><polygon fill="none" points="1118.2,699,1136.2,705,1136.2,693,1118.2,699" style="stroke:#008200;stroke-width:1.0;"/></g><!--link UnderwatchGame to MenuScreen--><g id="link_UnderwatchGame_MenuScreen"><path codeLine="56" d="M320.5,287.237 C320.5,305.024 320.5,323.076 320.5,340.844 " fill="none" id="UnderwatchGame-to-MenuScreen" style="stroke:#595959;stroke-width:1.0;stroke-dasharray:7.0,7.0;"/><polygon fill="#595959" points="320.5,346.844,324.5,337.844,320.5,341.844,316.5,337.844,320.5,346.844" style="stroke:#595959;stroke-width:1.0;"/><text fill="#000000" font-family="sans-serif" font-size="13" lengthAdjust="spacing" textLength="41" x="278.5" y="313.1069">create</text></g><!--link WorldController to AnimatedCollisionObject--><g id="link_WorldController_AnimatedCollisionObject"><path codeLine="57" d="M591.992,271 C519.826,271 432.5,271 432.5,271 C432.5,271 432.5,483.246 432.5,556.989 " fill="none" id="WorldController-AnimatedCollisionObject" style="stroke:#595959;stroke-width:1.0;"/><polygon fill="#595959" points="603.992,271,597.992,267,591.992,271,597.992,275,603.992,271" style="stroke:#595959;stroke-width:1.0;"/><polygon fill="#595959" points="432.5,562.989,436.5,553.989,432.5,557.989,428.5,553.989,432.5,562.989" style="stroke:#595959;stroke-width:1.0;"/><text fill="#000000" font-family="sans-serif" font-size="13" lengthAdjust="spacing" textLength="8" x="587.999" y="268.1253">1</text><text fill="#000000" font-family="sans-serif" font-size="13" lengthAdjust="spacing" textLength="46" x="394.5438" y="537.0373">objects</text><text fill="#000000" font-family="sans-serif" font-size="13" lengthAdjust="spacing" textLength="7" x="414.0438" y="552.1701">*</text></g><!--link WorldController to CameraHelper--><g id="link_WorldController_CameraHelper"><path codeLine="58" d="M738.5,287.225 C738.5,315.664 738.5,359 738.5,359 C738.5,359 744.898,359 760.784,359 " fill="none" id="WorldController-to-CameraHelper" style="stroke:#595959;stroke-width:1.0;stroke-dasharray:7.0,7.0;"/><polygon fill="#595959" points="766.784,359,757.784,355,761.784,359,757.784,363,766.784,359" style="stroke:#595959;stroke-width:1.0;"/><text fill="#000000" font-family="sans-serif" font-size="13" lengthAdjust="spacing" textLength="41" x="696.5" y="333.3209">create</text></g><!--link WorldController to CameraHelper--><g id="link_WorldController_CameraHelper"><path codeLine="59" d="M726,299.237 C726,331.079 726,371 726,371 C726,371 738.778,371 760.71,371 " fill="none" id="WorldController-CameraHelper" style="stroke:#595959;stroke-width:1.0;"/><polygon fill="#595959" points="726,287.237,722,293.237,726,299.237,730,293.237,726,287.237" style="stroke:#595959;stroke-width:1.0;"/><polygon fill="#595959" points="766.71,371,757.71,367,761.71,371,757.71,375,766.71,371" style="stroke:#595959;stroke-width:1.0;"/><text fill="#000000" font-family="sans-serif" font-size="13" lengthAdjust="spacing" textLength="8" x="728.8469" y="307.056">1</text><text fill="#000000" font-family="sans-serif" font-size="13" lengthAdjust="spacing" textLength="90" x="669.1319" y="352.068">cameraHelper</text><text fill="#000000" font-family="sans-serif" font-size="13" lengthAdjust="spacing" textLength="8" x="710.1319" y="367.2008">1</text></g><!--link WorldController to MenuScreen--><g id="link_WorldController_MenuScreen"><path codeLine="61" d="M603.801,255 C531.092,255 430.75,255 430.75,255 C430.75,255 430.75,363 430.75,363 C430.75,363 423.253,363 406.698,363 " fill="none" id="WorldController-to-MenuScreen" style="stroke:#595959;stroke-width:1.0;stroke-dasharray:7.0,7.0;"/><polygon fill="#595959" points="400.698,363,409.698,367,405.698,363,409.698,359,400.698,363" style="stroke:#595959;stroke-width:1.0;"/><text fill="#000000" font-family="sans-serif" font-size="13" lengthAdjust="spacing" textLength="41" x="449.25" y="251.0669">create</text></g><!--link WorldController to Player--><g id="link_WorldController_Player"><path codeLine="62" d="M701,299.358 C701,340.953 701,407.197 701,448.731 " fill="none" id="WorldController-Player" style="stroke:#595959;stroke-width:1.0;"/><polygon fill="#595959" points="701,287.358,697,293.358,701,299.358,705,293.358,701,287.358" style="stroke:#595959;stroke-width:1.0;"/><polygon fill="#595959" points="701,454.731,705,445.731,701,449.731,697,445.731,701,454.731" style="stroke:#595959;stroke-width:1.0;"/><text fill="#000000" font-family="sans-serif" font-size="13" lengthAdjust="spacing" textLength="8" x="697.7531" y="307.2065">1</text><text fill="#000000" font-family="sans-serif" font-size="13" lengthAdjust="spacing" textLength="40" x="651.6156" y="428.7261">player</text><text fill="#000000" font-family="sans-serif" font-size="13" lengthAdjust="spacing" textLength="8" x="667.6156" y="443.8589">1</text></g><!--link WorldController to Player--><g id="link_WorldController_Player"><path codeLine="63" d="M713.5,287.358 C713.5,328.953 713.5,407.197 713.5,448.731 " fill="none" id="WorldController-to-Player" style="stroke:#595959;stroke-width:1.0;stroke-dasharray:7.0,7.0;"/><polygon fill="#595959" points="713.5,454.731,717.5,445.731,713.5,449.731,709.5,445.731,713.5,454.731" style="stroke:#595959;stroke-width:1.0;"/><text fill="#000000" font-family="sans-serif" font-size="13" lengthAdjust="spacing" textLength="41" x="671.5" y="384.1119">create</text></g><!--link WorldParser to CandleStick--><g id="link_WorldParser_CandleStick"><path codeLine="64" d="M515.833,395.237 C515.833,413.024 515.833,431.076 515.833,448.844 " fill="none" id="WorldParser-to-CandleStick" style="stroke:#595959;stroke-width:1.0;stroke-dasharray:7.0,7.0;"/><polygon fill="#595959" points="515.833,454.844,519.833,445.844,515.833,449.844,511.833,445.844,515.833,454.844" style="stroke:#595959;stroke-width:1.0;"/><text fill="#000000" font-family="sans-serif" font-size="13" lengthAdjust="spacing" textLength="41" x="473.833" y="421.1069">create</text></g><!--link WorldParser to Chest--><g id="link_WorldParser_Chest"><path codeLine="65" d="M476.667,395.157 C476.667,409.535 476.667,425 476.667,425 C476.667,425 292,425 292,425 C292,425 292,434.465 292,448.843 " fill="none" id="WorldParser-to-Chest" style="stroke:#595959;stroke-width:1.0;stroke-dasharray:7.0,7.0;"/><polygon fill="#595959" points="292,454.843,296,445.843,292,449.843,288,445.843,292,454.843" style="stroke:#595959;stroke-width:1.0;"/><text fill="#000000" font-family="sans-serif" font-size="13" lengthAdjust="spacing" textLength="41" x="342.333" y="421.0669">create</text></g><!--link WorldParser to Coin--><g id="link_WorldParser_Coin"><path codeLine="66" d="M435.764,379 C434.788,379 434.25,379 434.25,379 C434.25,379 434.25,479 434.25,479 C434.25,479 424.561,479 408.749,479 " fill="none" id="WorldParser-to-Coin" style="stroke:#595959;stroke-width:1.0;stroke-dasharray:7.0,7.0;"/><polygon fill="#595959" points="402.749,479,411.749,483,407.749,479,411.749,475,402.749,479" style="stroke:#595959;stroke-width:1.0;"/><text fill="#000000" font-family="sans-serif" font-size="13" lengthAdjust="spacing" textLength="41" x="392.25" y="440.0609">create</text></g><!--link WorldRenderer to WorldController--><g id="link_WorldRenderer_WorldController"><path codeLine="67" d="M743,187.027 C743,205.795 743,213.77 743,232.626 " fill="none" id="WorldRenderer-WorldController" style="stroke:#595959;stroke-width:1.0;"/><polygon fill="#595959" points="743,175.027,739,181.027,743,187.027,747,181.027,743,175.027" style="stroke:#595959;stroke-width:1.0;"/><polygon fill="#595959" points="743,238.626,747,229.626,743,233.626,739,229.626,743,238.626" style="stroke:#595959;stroke-width:1.0;"/><text fill="#000000" font-family="sans-serif" font-size="13" lengthAdjust="spacing" textLength="8" x="718.7906" y="194.7948">1</text><text fill="#000000" font-family="sans-serif" font-size="13" lengthAdjust="spacing" textLength="97" x="649.5063" y="212.5994">worldController</text><text fill="#000000" font-family="sans-serif" font-size="13" lengthAdjust="spacing" textLength="8" x="694.0063" y="227.7322">1</text></g><!--SRC=[jPRDQjmm4CVlVeh1lOK4je52Mi92kvG4cfBGRSaXQK5hJsCrjcGafSi-Kn-XjpnPPTbQVyfhHrHxySxOFutchz58yHmKXmrNYcSGKu6Hefm5yf6od0YIGKePgbsEm8LAU114AP4Itc-a4YHI5oJ3TIGGcNKmcX65yOgdAPKQTRtvfPaTR_5Po_61RwkdbNO9SebfZc9lOd6AQqMZHsj9KDfFLvpQoJyop7RLSo-oIqsvUBB_Fg5zyOf85BNZCuaIlUI60TbJ2tIJafsEJPipA1tNlr5e8voVGs7LyHT9XEMo-cADIb7s85kOTS9LFSit5gFO4XKbHU01PGh5Jn8Xt2B9DKkZQziUVCj5gbFDbD3ftkVBMA-eLCZQjXiYPDlo1OjvxMgCwMiXTdybWKDPW9ExLmizpawFyvHGzlta1mm83MO4McWO78PoThfO7CT49XWRJBNutWYQkwJf25-7SAHHRzuMFnlG4a95n0EgUwRzfNw3qFq-6uZDiS9kEWApDvqhd4pHkngyAQOWvb9wcjMbD8NIEnaEK9oIyRAgZ6RjEcjeDfkwRPUCeNVAw30TQhBThKjmOjv1-Fn7KtHod_-6Bu7QOcwyF14wdWTR_dKMh6LAZaS27i1q0gwEOz-3G9_Z0DuxtFO0ps3gtk67sNSSdteRe_HLSsdSKSrrTiuxbiOe_T1SBMDYQEuACFaljxvBYdRdVgaKLQlttUljEyAXjBdqxwJDTMYvZsKZehndHw5ROHTrE5HND_SDDMfmZSwkYMR6Ex5Ova7_brwvgOlncy-yI5sOeKZBA-U4AdTTlloWZhkO7zHnDHk23lH1dvl9Fm00]--></g></svg>