<svg xmlns="http://www.w3.org/2000/svg" xmlns:xlink="http://www.w3.org/1999/xlink" contentStyleType="text/css" height="208px" preserveAspectRatio="none" style="width:291px;height:208px;background:#FFFFFF;" version="1.1" viewBox="0 0 291 208" width="291px" zoomAndPan="magnify"><defs/><g><!--cluster Mac/Linux/Windows-PC--><g id="cluster_Mac/Linux/Windows-PC"><polygon fill="none" points="16,16,26,6,274,6,274,181.59,264,191.59,16,191.59,16,16" style="stroke:#181818;stroke-width:1.0;"/><line style="stroke:#181818;stroke-width:1.0;" x1="264" x2="274" y1="16" y2="6"/><line style="stroke:#181818;stroke-width:1.0;" x1="16" x2="264" y1="16" y2="16"/><line style="stroke:#181818;stroke-width:1.0;" x1="264" x2="264" y1="16" y2="191.59"/><text fill="#000000" font-family="sans-serif" font-size="14" font-weight="bold" lengthAdjust="spacing" textLength="182" x="50" y="31.9951">Mac/Linux/Windows-PC</text></g><!--cluster JVM--><g id="cluster_JVM"><rect fill="none" height="113.59" rx="2.5" ry="2.5" style="stroke:#181818;stroke-width:1.0;" width="180" x="55" y="54"/><path d="M93,54 L93,63.2969 L83,73.2969 L55,73.2969 " fill="none" style="stroke:#181818;stroke-width:1.0;"/><text fill="#000000" font-family="sans-serif" font-size="14" font-weight="bold" lengthAdjust="spacing" textLength="28" x="58" y="67.9951">JVM</text></g><!--entity <<executable>>\n Underwatch.jar--><g id="elem_&lt;&lt;executable&gt;&gt;\n Underwatch.jar"><rect fill="#F1F1F1" height="62.5938" rx="2.5" ry="2.5" style="stroke:#181818;stroke-width:0.5;" width="147" x="71.5" y="89"/><rect fill="#F1F1F1" height="10" style="stroke:#181818;stroke-width:0.5;" width="15" x="198.5" y="94"/><rect fill="#F1F1F1" height="2" style="stroke:#181818;stroke-width:0.5;" width="4" x="196.5" y="96"/><rect fill="#F1F1F1" height="2" style="stroke:#181818;stroke-width:0.5;" width="4" x="196.5" y="100"/><text fill="#000000" font-family="sans-serif" font-size="14" lengthAdjust="spacing" textLength="94" x="86.5" y="121.9951">&#171;executable&#187;</text><text fill="#000000" font-family="sans-serif" font-size="14" lengthAdjust="spacing" textLength="103" x="90.5" y="138.292">Underwatch.jar</text></g><!--SRC=[oyjFILLGyarCrlV9p2kjq0_Fp4l9Bo_M3N1MKgZcKb18AqhC1Ihm2lE5y1KKecriKYjIaqjB4fDoKktiOl8KGlDIKelA4qkIC_Io4ejYWQfgkMe1]--></g></svg>