<?xml version="1.0" encoding="us-ascii" standalone="no"?><svg xmlns="http://www.w3.org/2000/svg" xmlns:xlink="http://www.w3.org/1999/xlink" contentStyleType="text/css" height="376px" preserveAspectRatio="none" style="width:507px;height:376px;background:#FFFFFF;" version="1.1" viewBox="0 0 507 376" width="507px" zoomAndPan="magnify"><defs/><g><text fill="#000000" font-family="sans-serif" font-size="14" font-weight="bold" lengthAdjust="spacing" textLength="130" x="187.75" y="28.5352">Render GameLoop</text><rect fill="#FFFFFF" height="56.3105" style="stroke:#181818;stroke-width:1.0;" width="10" x="58.5" y="179.9082"/><rect fill="none" height="60.6211" style="stroke:#000000;stroke-width:1.5;" width="241" x="10" y="90.9766"/><line style="stroke:#181818;stroke-width:0.5;stroke-dasharray:5.0,5.0;" x1="63" x2="63" y1="73.9766" y2="340.8398"/><line style="stroke:#181818;stroke-width:0.5;stroke-dasharray:5.0,5.0;" x1="179" x2="179" y1="73.9766" y2="340.8398"/><line style="stroke:#181818;stroke-width:0.5;stroke-dasharray:5.0,5.0;" x1="309" x2="309" y1="73.9766" y2="340.8398"/><line style="stroke:#181818;stroke-width:0.5;stroke-dasharray:5.0,5.0;" x1="448.5" x2="448.5" y1="73.9766" y2="340.8398"/><rect fill="#E2E2F0" height="30.4883" rx="2.5" ry="2.5" style="stroke:#181818;stroke-width:0.5;" width="87" x="20" y="42.4883"/><text fill="#000000" font-family="sans-serif" font-size="14" lengthAdjust="spacing" textLength="73" x="27" y="63.0234">GameLoop</text><rect fill="#E2E2F0" height="30.4883" rx="2.5" ry="2.5" style="stroke:#181818;stroke-width:0.5;" width="87" x="20" y="339.8398"/><text fill="#000000" font-family="sans-serif" font-size="14" lengthAdjust="spacing" textLength="73" x="27" y="360.375">GameLoop</text><rect fill="#E2E2F0" height="30.4883" rx="2.5" ry="2.5" style="stroke:#181818;stroke-width:0.5;" width="124" x="117" y="42.4883"/><text fill="#000000" font-family="sans-serif" font-size="14" lengthAdjust="spacing" textLength="110" x="124" y="63.0234">WorldController</text><rect fill="#E2E2F0" height="30.4883" rx="2.5" ry="2.5" style="stroke:#181818;stroke-width:0.5;" width="124" x="117" y="339.8398"/><text fill="#000000" font-family="sans-serif" font-size="14" lengthAdjust="spacing" textLength="110" x="124" y="360.375">WorldController</text><rect fill="#E2E2F0" height="30.4883" rx="2.5" ry="2.5" style="stroke:#181818;stroke-width:0.5;" width="117" x="251" y="42.4883"/><text fill="#000000" font-family="sans-serif" font-size="14" lengthAdjust="spacing" textLength="103" x="258" y="63.0234">WorldRenderer</text><rect fill="#E2E2F0" height="30.4883" rx="2.5" ry="2.5" style="stroke:#181818;stroke-width:0.5;" width="117" x="251" y="339.8398"/><text fill="#000000" font-family="sans-serif" font-size="14" lengthAdjust="spacing" textLength="103" x="258" y="360.375">WorldRenderer</text><rect fill="#E2E2F0" height="30.4883" rx="2.5" ry="2.5" style="stroke:#181818;stroke-width:0.5;" width="106" x="395.5" y="42.4883"/><text fill="#000000" font-family="sans-serif" font-size="14" lengthAdjust="spacing" textLength="92" x="402.5" y="63.0234">StageHandler</text><rect fill="#E2E2F0" height="30.4883" rx="2.5" ry="2.5" style="stroke:#181818;stroke-width:0.5;" width="106" x="395.5" y="339.8398"/><text fill="#000000" font-family="sans-serif" font-size="14" lengthAdjust="spacing" textLength="92" x="402.5" y="360.375">StageHandler</text><rect fill="#FFFFFF" height="56.3105" style="stroke:#181818;stroke-width:1.0;" width="10" x="58.5" y="179.9082"/><path d="M10,90.9766 L72,90.9766 L72,98.2871 L62,108.2871 L10,108.2871 L10,90.9766 " fill="#EEEEEE" style="stroke:#000000;stroke-width:1.5;"/><rect fill="none" height="60.6211" style="stroke:#000000;stroke-width:1.5;" width="241" x="10" y="90.9766"/><text fill="#000000" font-family="sans-serif" font-size="13" font-weight="bold" lengthAdjust="spacing" textLength="17" x="25" y="104.5449">alt</text><text fill="#000000" font-family="sans-serif" font-size="11" font-weight="bold" lengthAdjust="spacing" textLength="68" x="87" y="103.6113">[(!isPaused)]</text><polygon fill="#181818" points="167,125.5977,177,129.5977,167,133.5977,171,129.5977" style="stroke:#181818;stroke-width:1.0;"/><line style="stroke:#181818;stroke-width:1.0;" x1="63.5" x2="173" y1="129.5977" y2="129.5977"/><text fill="#000000" font-family="sans-serif" font-size="13" lengthAdjust="spacing" textLength="44" x="70.5" y="124.8555">Update</text><polygon fill="#181818" points="74.5,139.5977,64.5,143.5977,74.5,147.5977,70.5,143.5977" style="stroke:#181818;stroke-width:1.0;"/><line style="stroke:#181818;stroke-width:1.0;stroke-dasharray:2.0,2.0;" x1="68.5" x2="178" y1="143.5977" y2="143.5977"/><polygon fill="#181818" points="297.5,175.9082,307.5,179.9082,297.5,183.9082,301.5,179.9082" style="stroke:#181818;stroke-width:1.0;"/><line style="stroke:#181818;stroke-width:1.0;" x1="68.5" x2="303.5" y1="179.9082" y2="179.9082"/><text fill="#000000" font-family="sans-serif" font-size="13" lengthAdjust="spacing" textLength="43" x="75.5" y="175.166">Render</text><line style="stroke:#181818;stroke-width:1.0;" x1="309.5" x2="351.5" y1="209.2188" y2="209.2188"/><line style="stroke:#181818;stroke-width:1.0;" x1="351.5" x2="351.5" y1="209.2188" y2="222.2188"/><line style="stroke:#181818;stroke-width:1.0;" x1="310.5" x2="351.5" y1="222.2188" y2="222.2188"/><polygon fill="#181818" points="320.5,218.2188,310.5,222.2188,320.5,226.2188,316.5,222.2188" style="stroke:#181818;stroke-width:1.0;"/><text fill="#000000" font-family="sans-serif" font-size="13" lengthAdjust="spacing" textLength="125" x="316.5" y="204.4766">Render Map Objects</text><polygon fill="#181818" points="74.5,232.2188,64.5,236.2188,74.5,240.2188,70.5,236.2188" style="stroke:#181818;stroke-width:1.0;"/><line style="stroke:#181818;stroke-width:1.0;stroke-dasharray:2.0,2.0;" x1="68.5" x2="308.5" y1="236.2188" y2="236.2188"/><polygon fill="#181818" points="436.5,261.5293,446.5,265.5293,436.5,269.5293,440.5,265.5293" style="stroke:#181818;stroke-width:1.0;"/><line style="stroke:#181818;stroke-width:1.0;" x1="63.5" x2="442.5" y1="265.5293" y2="265.5293"/><text fill="#000000" font-family="sans-serif" font-size="13" lengthAdjust="spacing" textLength="44" x="70.5" y="260.7871">Update</text><polygon fill="#181818" points="74.5,275.5293,64.5,279.5293,74.5,283.5293,70.5,279.5293" style="stroke:#181818;stroke-width:1.0;"/><line style="stroke:#181818;stroke-width:1.0;stroke-dasharray:2.0,2.0;" x1="68.5" x2="447.5" y1="279.5293" y2="279.5293"/><polygon fill="#181818" points="436.5,304.8398,446.5,308.8398,436.5,312.8398,440.5,308.8398" style="stroke:#181818;stroke-width:1.0;"/><line style="stroke:#181818;stroke-width:1.0;" x1="63.5" x2="442.5" y1="308.8398" y2="308.8398"/><text fill="#000000" font-family="sans-serif" font-size="13" lengthAdjust="spacing" textLength="84" x="70.5" y="304.0977">Draw and Act</text><polygon fill="#181818" points="74.5,318.8398,64.5,322.8398,74.5,326.8398,70.5,322.8398" style="stroke:#181818;stroke-width:1.0;"/><line style="stroke:#181818;stroke-width:1.0;stroke-dasharray:2.0,2.0;" x1="68.5" x2="447.5" y1="322.8398" y2="322.8398"/><!--SRC=[RO_D2a8X44RtFiMqgqKlS1T16DmMHQ54w-awX64gEjNhv_sb2xdp-uvdHhRi21HvGmbgVD8XX2X4nCIsiH4zmnG3vdAPTzUGd971SmhE5KMBo3z8Fs40r1pGZ7VQepUZG0k1Zc6viFcChqnc9Q2S6jORa1LSea6cBfAmBbbTYQ8NNQ-guJS26xRl0fQLrQo18qOutHxKS6whtc3evq6dqjCeFK9ZlaluWR8nR1kUsYy0]--></g></svg>