<?xml version="1.0" encoding="us-ascii" standalone="no"?><svg xmlns="http://www.w3.org/2000/svg" xmlns:xlink="http://www.w3.org/1999/xlink" contentStyleType="text/css" height="294px" preserveAspectRatio="none" style="width:1769px;height:294px;background:#FFFFFF;" version="1.1" viewBox="0 0 1769 294" width="1769px" zoomAndPan="magnify"><defs/><g><!--cluster System--><g id="cluster_System"><path d="M1013.5,40.64 L1066.5,40.64 A3.75,3.75 0 0 1 1069,43.14 L1076,63.1283 L1395.5,63.1283 A2.5,2.5 0 0 1 1398,65.6283 L1398,127.64 A2.5,2.5 0 0 1 1395.5,130.14 L1013.5,130.14 A2.5,2.5 0 0 1 1011,127.64 L1011,43.14 A2.5,2.5 0 0 1 1013.5,40.64 " fill="none" style="stroke:#000000;stroke-width:1.5;"/><line style="stroke:#000000;stroke-width:1.5;" x1="1011" x2="1076" y1="63.1283" y2="63.1283"/><text fill="#000000" font-family="sans-serif" font-size="14" font-weight="bold" lengthAdjust="spacing" textLength="52" x="1015" y="56.1752">System</text></g><!--cluster The Game--><g id="cluster_The Game"><path d="M8.5,196.48 L81.5,196.48 A3.75,3.75 0 0 1 84,198.98 L91,218.9683 L1159.5,218.9683 A2.5,2.5 0 0 1 1162,221.4683 L1162,284.34 A2.5,2.5 0 0 1 1159.5,286.84 L8.5,286.84 A2.5,2.5 0 0 1 6,284.34 L6,198.98 A2.5,2.5 0 0 1 8.5,196.48 " fill="none" style="stroke:#000000;stroke-width:1.5;"/><line style="stroke:#000000;stroke-width:1.5;" x1="6" x2="91" y1="218.9683" y2="218.9683"/><text fill="#000000" font-family="sans-serif" font-size="14" font-weight="bold" lengthAdjust="spacing" textLength="72" x="10" y="212.0152">The Game</text></g><!--cluster Website--><g id="cluster_Website"><path d="M1188.5,196.13 L1246.5,196.13 A3.75,3.75 0 0 1 1249,198.63 L1256,218.6183 L1759.5,218.6183 A2.5,2.5 0 0 1 1762,221.1183 L1762,284.69 A2.5,2.5 0 0 1 1759.5,287.19 L1188.5,287.19 A2.5,2.5 0 0 1 1186,284.69 L1186,198.63 A2.5,2.5 0 0 1 1188.5,196.13 " fill="none" style="stroke:#000000;stroke-width:1.5;"/><line style="stroke:#000000;stroke-width:1.5;" x1="1186" x2="1256" y1="218.6183" y2="218.6183"/><text fill="#000000" font-family="sans-serif" font-size="14" font-weight="bold" lengthAdjust="spacing" textLength="57" x="1190" y="211.6652">Website</text></g><g id="elem_Install"><ellipse cx="1102.9979" cy="94.8916" fill="#F1F1F1" rx="76.2079" ry="17.6416" style="stroke:#181818;stroke-width:0.5;"/><text fill="#000000" font-family="sans-serif" font-size="14" lengthAdjust="spacing" textLength="109" x="1048.4979" y="98.1826">Install the game</text></g><g id="elem_Uninstall"><ellipse cx="1297.9951" cy="94.887" fill="#F1F1F1" rx="84.2351" ry="19.247" style="stroke:#181818;stroke-width:0.5;"/><text fill="#000000" font-family="sans-serif" font-size="14" lengthAdjust="spacing" textLength="128" x="1233.9951" y="98.178">Uninstall the game</text></g><g id="elem_Start"><ellipse cx="97.0032" cy="251.1646" fill="#F1F1F1" rx="74.9732" ry="17.3946" style="stroke:#181818;stroke-width:0.5;"/><text fill="#000000" font-family="sans-serif" font-size="14" lengthAdjust="spacing" textLength="106" x="44.0032" y="254.4557">Start new game</text></g><g id="elem_Finish"><ellipse cx="282.9979" cy="251.1616" fill="#F1F1F1" rx="76.2079" ry="17.6416" style="stroke:#181818;stroke-width:0.5;"/><text fill="#000000" font-family="sans-serif" font-size="14" lengthAdjust="spacing" textLength="109" x="228.4979" y="254.4526">Finish the game</text></g><g id="elem_Continue"><ellipse cx="480.999" cy="251.1598" fill="#F1F1F1" rx="86.399" ry="19.6798" style="stroke:#181818;stroke-width:0.5;"/><text fill="#000000" font-family="sans-serif" font-size="14" lengthAdjust="spacing" textLength="133" x="414.499" y="254.4508">Continue last game</text></g><g id="elem_Pause"><ellipse cx="677.9952" cy="251.159" fill="#F1F1F1" rx="75.7952" ry="17.559" style="stroke:#181818;stroke-width:0.5;"/><text fill="#000000" font-family="sans-serif" font-size="14" lengthAdjust="spacing" textLength="108" x="623.9952" y="254.4501">Pause the game</text></g><g id="elem_Submit"><ellipse cx="873.0047" cy="251.1609" fill="#F1F1F1" rx="83.8047" ry="19.1609" style="stroke:#181818;stroke-width:0.5;"/><text fill="#000000" font-family="sans-serif" font-size="14" lengthAdjust="spacing" textLength="127" x="809.5047" y="254.452">Submit highscores</text></g><g id="elem_Settings"><ellipse cx="1068.9965" cy="251.1573" fill="#F1F1F1" rx="77.0365" ry="17.8073" style="stroke:#181818;stroke-width:0.5;"/><text fill="#000000" font-family="sans-serif" font-size="14" lengthAdjust="spacing" textLength="111" x="1013.4965" y="254.4483">Change settings</text></g><g id="elem_Download"><ellipse cx="1290.0034" cy="251.1587" fill="#F1F1F1" rx="88.1434" ry="20.0287" style="stroke:#181818;stroke-width:0.5;"/><text fill="#000000" font-family="sans-serif" font-size="14" lengthAdjust="spacing" textLength="137" x="1221.5034" y="254.4497">Download the game</text></g><g id="elem_Wiki"><ellipse cx="1477.9956" cy="251.1571" fill="#F1F1F1" rx="65.1356" ry="15.4271" style="stroke:#181818;stroke-width:0.5;"/><text fill="#000000" font-family="sans-serif" font-size="14" lengthAdjust="spacing" textLength="80" x="1434.9956" y="255.1747">Browse wiki</text></g><g id="elem_Highscores"><ellipse cx="1661.9951" cy="251.157" fill="#F1F1F1" rx="84.2351" ry="19.247" style="stroke:#181818;stroke-width:0.5;"/><text fill="#000000" font-family="sans-serif" font-size="14" lengthAdjust="spacing" textLength="128" x="1597.9951" y="254.448">Browse highscores</text></g><!--entity P--><g id="elem_P"><ellipse cx="971" cy="65.14" fill="#F1F1F1" rx="8" ry="8" style="stroke:#181818;stroke-width:0.5;"/><path d="M971,73.14 L971,100.14 M958,81.14 L984,81.14 M971,100.14 L958,115.14 M971,100.14 L984,115.14 " fill="none" style="stroke:#181818;stroke-width:0.5;"/><text fill="#000000" font-family="sans-serif" font-size="14" lengthAdjust="spacing" textLength="41" x="950.5" y="130.1752">Player</text></g><!--link P to Install--><g id="link_P_Install"><path d="M991.88,94.89 C1003.46,94.89 1009.03,94.89 1020.61,94.89 " fill="none" id="P-to-Install" style="stroke:#181818;stroke-width:1.0;"/><polygon fill="#181818" points="1026.61,94.89,1017.61,90.89,1021.61,94.89,1017.61,98.89,1026.61,94.89" style="stroke:#181818;stroke-width:1.0;"/></g><!--link P to Uninstall--><g id="link_P_Uninstall"><path d="M987.7,56.47 C997.03,40.58 1010.47,24.31 1028.5,17.64 C1059.97,6 1147.33,8.08 1179.5,17.64 C1217.64,28.97 1250.3935,53.0081 1272.6635,71.9881 " fill="none" id="P-to-Uninstall" style="stroke:#181818;stroke-width:1.0;"/><polygon fill="#181818" points="1277.23,75.88,1272.9748,66.9978,1273.4246,72.6368,1267.7856,73.0865,1277.23,75.88" style="stroke:#181818;stroke-width:1.0;"/></g><!--link P to Start--><g id="link_P_Start"><path d="M950.22,97.01 C841.25,103.09 335.08,133.84 189,188.13 C160.83,198.6 137.4458,215.5166 119.8658,230.1166 " fill="none" id="P-to-Start" style="stroke:#181818;stroke-width:1.0;"/><polygon fill="#181818" points="115.25,233.95,124.7292,231.2772,119.0965,230.7555,119.6181,225.1228,115.25,233.95" style="stroke:#181818;stroke-width:1.0;"/></g><!--link P to Finish--><g id="link_P_Finish"><path d="M950.19,95.96 C872.04,96.86 589.71,105.96 377,188.13 C348.91,198.98 325.2953,215.4945 307.1953,229.8945 " fill="none" id="P-to-Finish" style="stroke:#181818;stroke-width:1.0;"/><polygon fill="#181818" points="302.5,233.63,312.0333,231.157,306.4128,230.5171,307.0526,224.8965,302.5,233.63" style="stroke:#181818;stroke-width:1.0;"/></g><!--link P to Pause--><g id="link_P_Pause"><path d="M950.16,104.33 C913.37,119.51 834.86,153.08 772,188.13 C746.56,202.32 723.7983,217.5592 705.1083,230.6992 " fill="none" id="P-to-Pause" style="stroke:#181818;stroke-width:1.0;"/><polygon fill="#181818" points="700.2,234.15,709.8631,232.246,704.2903,231.2743,705.262,225.7015,700.2,234.15" style="stroke:#181818;stroke-width:1.0;"/></g><!--link P to Submit--><g id="link_P_Submit"><path d="M950.22,128.61 C930.21,160.09 903.9174,201.4956 887.7874,226.8856 " fill="none" id="P-to-Submit" style="stroke:#181818;stroke-width:1.0;"/><polygon fill="#181818" points="884.57,231.95,892.7724,226.4983,887.2512,227.7296,886.0198,222.2084,884.57,231.95" style="stroke:#181818;stroke-width:1.0;"/></g><!--link P to Settings--><g id="link_P_Settings"><path d="M991.78,128.61 C1012.12,160.62 1039.0825,203.0656 1055.0225,228.1556 " fill="none" id="P-to-Settings" style="stroke:#181818;stroke-width:1.0;"/><polygon fill="#181818" points="1058.24,233.22,1056.7901,223.4785,1055.5588,228.9997,1050.0376,227.7684,1058.24,233.22" style="stroke:#181818;stroke-width:1.0;"/></g><!--link P to Download--><g id="link_P_Download"><path d="M991.63,121.75 C997.39,127.76 1004.01,133.69 1011,138.14 C1070.66,176.06 1096.49,161.55 1162,188.13 C1194.72,201.41 1225.496,216.4625 1250.986,229.5925 " fill="none" id="P-to-Download" style="stroke:#181818;stroke-width:1.0;"/><polygon fill="#181818" points="1256.32,232.34,1250.1508,224.6627,1251.875,230.0504,1246.4874,231.7747,1256.32,232.34" style="stroke:#181818;stroke-width:1.0;"/></g><!--link P to Wiki--><g id="link_P_Wiki"><path d="M991.94,123.58 C997.52,129.24 1003.98,134.56 1011,138.14 C1087.88,177.28 1316.15,155.46 1396,188.13 C1422.76,199.08 1444.1548,216.862 1459.4448,231.492 " fill="none" id="P-to-Wiki" style="stroke:#181818;stroke-width:1.0;"/><polygon fill="#181818" points="1463.78,235.64,1460.0426,226.5278,1460.1674,232.1833,1454.5119,232.308,1463.78,235.64" style="stroke:#181818;stroke-width:1.0;"/><text fill="#000000" font-family="sans-serif" font-size="13" lengthAdjust="spacing" textLength="79" x="1368" y="176.6984">Interact with</text></g><!--link P to Highscores--><g id="link_P_Highscores"><path d="M991.76,123.95 C997.35,129.6 1003.85,134.82 1011,138.14 C1100.85,179.82 1357.99,148.83 1456,163.13 C1503.47,170.06 1516.67,169.79 1561,188.13 C1588.95,199.7 1613.1879,214.9846 1632.9479,228.8446 " fill="none" id="P-to-Highscores" style="stroke:#181818;stroke-width:1.0;"/><polygon fill="#181818" points="1637.86,232.29,1632.7888,223.8471,1633.7666,229.4188,1628.1949,230.3966,1637.86,232.29" style="stroke:#181818;stroke-width:1.0;"/><text fill="#000000" font-family="sans-serif" font-size="13" lengthAdjust="spacing" textLength="79" x="1540" y="176.6984">Interact with</text></g><!--SRC=[RP7FReCm3CRlF8N5lI-mmmvRjJytf6xgsMKMYGf95HkXQkgxpv002osNvFlqm_xiO2q-GDNYbG8WGrKK5wpFs12KXoiBTINy5g1VprGZg_tfMB1jGGn1WnsLut_9pCblPn-nYrtS_dNxKkHzGZRz3e91mD6mLfYid7gpphB96qKlvrwz4-jwWXPPLdIsSxX2lUOr9siJi3zrLi3Ond3j0t7CEBcRvWQTpieasgn9N1BPCevqOYltkzZxmRKUV_9CivkpBy4FUWxsR2Vgg9U7n2RunoB7I1NimkvvUTyaroSS7JNYYyHxMdiKSLy9YYj9OfuxwMM8ACUqyAHzXGBMecF8N78DU0Vy0G00]--></g></svg>